<?xml version="1.0" encoding="UTF-8" standalone="no"?>
<!DOCTYPE svg PUBLIC "-//W3C//DTD SVG 1.1//EN"
"http://www.w3.org/Graphics/SVG/1.1/DTD/svg11.dtd">
<svg viewBox="0 0 909 1286" version="1.1" xmlns="http://www.w3.org/2000/svg" xmlns:xlink="http://www.w3.org/1999/xlink">
<defs>
<clipPath id="c0"><path d="M0,1286.2V0H909.5V1286.2Z"/></clipPath>
<clipPath id="c1"><path d="M0,1264V1131.3H898.3V1264Z"/></clipPath>
<clipPath id="c2"><path d="M428.3,116.9v0c5,-3.4,11.8,-8.8,4.8,-28.3C426.2,69.2,443.6,64.5,443.6,64.5c-11.9,12.6,4.3,26.6,2.2,39.1c-2.2,12.4,-17.5,13.3,-17.5,13.3Z"/></clipPath>
<clipPath id="c3"><path d="M408.3,171.4c-1.2,0,-2.3,-.9,-2.5,-2.2c-.3,-1.4,.7,-2.8,2.1,-3c.2,0,.3,0,.4,0c1.3,0,2.4,.9,2.6,2.2c.3,1.4,-.7,2.7,-2.1,3c-.2,0,-.3,0,-.5,0Z"/></clipPath>
<clipPath id="c4"><path d="M491.2,103.6c-1.3,0,-2.4,-.9,-2.6,-2.2c-.3,-1.5,.7,-2.8,2.1,-3c.2,0,.3,-.1,.5,-.1c1.2,0,2.3,1,2.5,2.2c.3,1.5,-.7,2.8,-2.1,3c-.2,.1,-.3,.1,-.4,.1Z"/></clipPath>
<clipPath id="c5"><path d="M354.7,146.2c-2.5,0,-4.7,-1.8,-5.1,-4.4c-.5,-2.9,1.5,-5.5,4.3,-6c.3,-.1,.6,-.1,.9,-.1c2.5,0,4.7,1.8,5.1,4.4c.5,2.9,-1.4,5.6,-4.3,6c-.3,.1,-.6,.1,-.9,.1Z"/></clipPath>
<clipPath id="c6"><path d="M445.3,112.5v0c7.1,-4.7,16.7,-12.5,6.8,-40.1C447.9,60.7,450,52.8,453.7,47.5c-5.2,11.4,0,23.3,0,23.3C446.9,44,467,38.2,467,38.2c-17,18,6.1,37.8,3.1,55.5c-1.1,6.1,-4.4,10.3,-8.3,13.1c7.9,-8.5,4.9,-21,4.9,-21c2.4,24.7,-21.4,26.7,-21.4,26.7Z"/></clipPath>
<clipPath id="c7"><path d="M490.1,207.7c-.5,0,-.9,0,-1.3,-.1c-2.4,-.7,-3.7,-3.2,-3,-5.6c.6,-1.9,2.3,-3.1,4.2,-3.1c.5,0,.9,.1,1.3,.2c2.3,.7,3.7,3.1,3,5.5c-.6,1.9,-2.3,3.1,-4.2,3.1Z"/></clipPath>
<clipPath id="c8"><path d="M448,178.8c0,-.6,-.1,-1.1,-.5,-1.6c-.3,-.3,-.7,-.5,-1.2,-.5c-.2,0,-.5,0,-.7,.1c.1,0,.2,0,.3,0c.4,0,.8,.1,1.2,.3c.6,.2,.9,.8,.9,1.7Zm2.1,-.7v0c.2,-.9,.1,-1.6,-.1,-2.2c-.3,-.5,-.7,-1,-1.2,-1.3c-.5,-.2,-1,-.4,-1.6,-.4c0,0,-.1,0,-.2,0c-.6,.1,-1.2,.3,-1.7,.8c.5,-.2,1,-.3,1.5,-.3c.6,0,1.2,.2,1.8,.4c.9,.6,1.4,1.5,1.5,3Zm3.5,-2v0c.1,-1.2,-.1,-2.1,-.4,-2.8c-.3,-.7,-.7,-1.2,-1.2,-1.6c-.5,-.4,-1.1,-.6,-1.7,-.7c-.4,-.1,-.9,-.1,-1.3,-.1c-.1,0,-.3,0,-.5,0q.1,0,.1,0c1.2,0,2.3,.4,3.3,1.1c1,.8,1.6,2.1,1.7,4.1Zm-11.5,12.3v0c.2,-.3,.5,-.5,.8,-.8c.7,-.8,1.3,-1.6,1.9,-2.3c.5,-.8,.9,-1.4,1.2,-2c.8,-1.4,1.2,-2.7,1.3,-3.9c0,-1.1,-.4,-1.7,-1.2,-1.7c-.1,-.1,-.2,-.1,-.3,-.1c-1,0,-2,.5,-3,1.4c-1.2,1,-2.3,2.3,-3.3,3.8c-1.1,1.6,-1.9,3.2,-2.5,5c-1.7,-1,-3.7,-1.7,-5.7,-1.8c.3,-1.1,.6,-2.3,1.1,-3.4c1.1,-2.6,2.5,-5,4.4,-7c1.8,-2.1,4,-3.6,6.4,-4.7c1.5,-.7,3.1,-1,4.7,-1c1,0,2,.1,2.9,.4c1.3,.2,2.3,.9,2.9,2c.6,.9,.9,2,.9,3.2c-1,1.7,-1.6,3.6,-1.7,5.6c-1.4,1.4,-2.5,3,-3.2,4.9c-1,.2,-2,.6,-3,1c-1.6,.2,-3.2,.7,-4.6,1.4Z"/></clipPath>
<clipPath id="c9"><path d="M475.1,192.9c.2,0,.5,0,.8,-.1c.6,-.2,1.4,-.7,2.2,-1.5c-1,.9,-1.9,1.4,-2.5,1.5c-.1,0,-.3,0,-.4,0c-.4,0,-.7,-.1,-1,-.4c-.3,-.3,-.4,-.8,-.5,-1.3c0,-.5,-.1,-.9,0,-1.3c-.2,.6,-.2,1.2,-.1,1.8c.2,.5,.4,.9,.8,1.1c.2,.2,.4,.2,.7,.2ZM460.5,192v0c.1,-.3,.4,-1,.7,-2.1c.4,-1.1,.8,-2.3,1.2,-3.6c.4,-1.2,.7,-2.4,1,-3.5c.3,-1.1,.5,-1.8,.5,-2.1c-.1,.5,-.4,1.2,-.7,2.3c-.3,1.2,-.7,2.3,-1,3.5c-.4,1.3,-.8,2.4,-1.1,3.4c-.3,1,-.5,1.7,-.6,2.1Zm.5,3.3v0c.3,-1.8,.8,-4,1.5,-6.4c.7,-2.5,1.5,-4.9,2.4,-7.3c.9,-2.4,1.8,-4.5,2.8,-6.4c1.1,-2,2.1,-3.3,3.1,-4.2c-.9,.7,-1.8,1.8,-2.7,3.2c-.8,1.3,-1.6,2.8,-2.3,4.5c-.8,1.7,-1.4,3.4,-2,5.2c-.6,1.8,-1.1,3.5,-1.5,5c-.4,1.6,-.7,2.9,-.9,4.1c-.3,1.2,-.4,1.9,-.4,2.3Zm7,-23.2v0c.1,0,.3,-.3,.7,-.8c.3,-.4,.7,-.9,1.1,-1.4c.5,-.5,.9,-1,1.4,-1.4c.5,-.4,.8,-.7,1.1,-.7c-.1,0,-.1,-.1,-.1,-.1c-.3,0,-.5,.2,-.8,.5c-.4,.3,-.8,.7,-1.3,1.2c-.4,.5,-.8,1,-1.2,1.5c-.4,.5,-.7,.9,-.9,1.2Zm-2.4,2.3v0c.2,-.6,.7,-1.4,1.3,-2.3c.7,-.9,1.4,-1.8,2.1,-2.7c.8,-.8,1.5,-1.6,2.2,-2.4c.7,-.7,1.1,-1.1,1.4,-1.3c-.3,.1,-.8,.5,-1.4,1.1c-.6,.6,-1.2,1.3,-1.9,2c-.6,.8,-1.3,1.6,-2,2.4c-.6,.9,-1.1,1.6,-1.5,2.3c0,-.2,0,-.5,.1,-.9c0,-.4,.1,-.8,.1,-1.3c0,-.5,.1,-.9,.1,-1.3c0,-.2,0,-.3,0,-.4c0,.2,0,.3,0,.5c-.1,.5,-.2,1,-.3,1.5c-.1,.6,-.1,1.1,-.2,1.6c0,.5,-.1,.9,0,1.2Zm-5.5,23.1c-.1,0,-.3,0,-.4,0c-.5,-.2,-1,-.4,-1.5,-.8c-.4,-.4,-.9,-.9,-1.2,-1.4c-.4,-.5,-.6,-1,-.8,-1.4c.1,-.3,.2,-.7,.3,-1.2c.2,-.6,.3,-1.2,.5,-1.8c.2,-.7,.4,-1.4,.5,-2.1c.2,-.7,.3,-1.3,.4,-1.9c-.1,.5,-.3,1.1,-.5,1.8c-.1,.8,-.3,1.5,-.5,2.2c-.2,.7,-.4,1.4,-.6,1.9c-.2,.6,-.3,.9,-.5,1c1.4,-6.1,2.6,-11.7,3.5,-16.8c1,-5.1,1.6,-9.5,2.1,-13.2c.5,-3.8,.7,-6.8,.7,-9.1c0,-2.3,-.2,-3.8,-.7,-4.4c.3,-.4,.8,-.6,1.6,-.7c.2,0,.4,0,.7,0c.5,0,1.1,.1,1.7,.2c.8,.2,1.6,.7,2.3,1.3c.7,.7,1,1.5,1.1,2.7c.2,-.3,.2,-.8,.1,-1.5c.3,.3,.4,.7,.5,1.2c.1,.4,.1,.9,.1,1.5c-.1,.5,-.1,1,-.2,1.5c-.1,.5,-.2,1,-.3,1.3c.1,-.3,.3,-.9,.5,-1.7c.2,-.9,.3,-1.5,.2,-1.9c.2,.8,.3,1.5,.1,2.4c-.2,.9,-.4,1.9,-.7,3.2c.1,-.5,.4,-1.2,.8,-2c.4,-.8,.7,-1.4,1.1,-1.7c-.6,1.4,-1.3,3.5,-2,6.2c-.8,2.6,-1.5,5.4,-2.1,8.3c1.1,-1.8,2.3,-3.2,3.5,-4.5c1.3,-1.2,2.5,-2,3.8,-2.3c.9,.5,1.7,1.1,2.4,2c.6,.8,1.2,1.6,1.6,2.5c.3,.9,.6,1.7,.8,2.5c.2,.8,.3,1.4,.3,1.8c-2,5.9,-3.4,10.6,-4.2,13.9c-.7,3.3,-.8,5.1,-.1,5.3c.2,.1,.4,.1,.6,.1c.5,0,1,-.2,1.6,-.8c.8,-.7,1.5,-1.7,2.3,-2.9c.7,-1.3,1.4,-2.7,2.1,-4.2c.6,-1.6,1.2,-3.1,1.8,-4.5c.5,-1.5,1,-2.7,1.4,-3.8c.3,-1.1,.6,-1.8,.7,-2.2c.1,-.5,.4,-.9,.8,-1.1c.2,-.2,.5,-.3,.8,-.3c0,0,.1,0,.1,0c.4,.1,.6,.3,.8,.7c.2,.4,.1,.9,-.1,1.7c-.2,.9,-.5,2,-.9,3.5c-.5,1.4,-1,3,-1.7,4.6c-.6,1.7,-1.3,3.3,-2.2,4.9c-.8,1.7,-1.7,3.1,-2.7,4.4c-1,1.3,-2,2.3,-3.1,3.1c-.9,.6,-1.8,.8,-2.7,.8c-.2,0,-.4,0,-.6,0c-1.2,-.2,-2.3,-.7,-3.2,-1.4c-1,-.8,-1.6,-2.1,-2,-3.9c-.4,-1.8,-.4,-4.3,0,-7.4c.4,-3,1.3,-7,2.8,-11.8c-.6,.3,-1.3,1.1,-2.1,2.3c-.8,1.2,-1.7,2.8,-2.6,4.7c-.9,2,-1.8,4.4,-2.7,7c-.9,2.7,-1.8,5.7,-2.6,9.1c-.1,.4,-.2,.9,-.3,1.4c-.1,.5,-.2,.9,-.3,1.4c-.3,.2,-.6,.3,-.9,.3Z"/></clipPath>
<clipPath id="ca"><path d="M466.6,166.6v0c.1,-.1,.1,-.5,.2,-1c.1,-.5,.2,-1.1,.4,-1.7c.1,-.6,.3,-1.1,.4,-1.7c.2,-.6,.3,-1,.4,-1.3c0,.1,-.1,.4,-.2,1c-.2,.6,-.3,1.2,-.5,1.9c-.2,.7,-.3,1.3,-.4,1.9c-.1,.6,-.2,.9,-.3,.9Z"/></clipPath>
<clipPath id="cb"><path d="M492.4,189.3c.1,-.6,.3,-1.1,.3,-1.7c.1,-.5,.1,-.9,.1,-1.2c-.2,.5,-.3,1.1,-.4,1.6c-.1,.6,-.1,1,0,1.3Zm0,2.8v0c.1,-.4,.3,-1.2,.6,-2.3c.2,-1.2,.4,-2.5,.7,-4.1c.2,-1.5,.5,-3.1,.8,-4.9c.3,-1.8,.5,-3.5,.7,-5.1c.2,-1.7,.5,-3.2,.6,-4.5c.2,-1.4,.4,-2.5,.5,-3.2c-.1,.2,-.2,.8,-.4,2c-.2,1.2,-.4,2.6,-.7,4.3c-.3,1.7,-.6,3.5,-.9,5.4c-.3,2,-.5,3.9,-.8,5.6c-.2,1.7,-.5,3.2,-.7,4.5c-.2,1.2,-.3,2,-.4,2.3Zm4,-13.4v0c0,-.2,.1,-.7,.3,-1.5c.1,-.7,.3,-1.6,.5,-2.6c.1,-1,.3,-2,.5,-3.1c.2,-1.2,.3,-2.2,.5,-3.2c.1,-1,.2,-1.9,.3,-2.7c.2,-.8,.2,-1.3,.2,-1.5c-.1,.3,-.2,1.2,-.5,2.6c-.3,1.4,-.5,3,-.8,4.6c-.3,1.6,-.5,3.1,-.8,4.5c-.2,1.5,-.3,2.4,-.2,2.9Zm-4.1,4.1v0c.1,-.3,.3,-1,.5,-2.1c.2,-1.1,.4,-2.3,.7,-3.8c.3,-1.5,.5,-3.1,.8,-4.8c.2,-1.8,.5,-3.4,.7,-4.8c.2,-1.5,.4,-2.8,.5,-3.9c.2,-1,.3,-1.7,.3,-2c-.1,.2,-.3,.8,-.5,1.9c-.2,1.1,-.4,2.4,-.6,4c-.3,1.5,-.6,3.1,-.8,4.9c-.3,1.7,-.6,3.4,-.8,4.9c-.2,1.5,-.4,2.8,-.6,3.9c-.1,1,-.2,1.6,-.2,1.8Zm2.5,11.6c-.2,0,-.5,0,-.9,-.1c-.8,0,-1.7,-.1,-2.6,-.1c-.9,-.1,-1.7,-.2,-2.5,-.4c-.7,-.1,-1.1,-.2,-1.1,-.3c.3,-2,.7,-4.4,1.1,-7.2c.5,-2.8,.9,-5.7,1.4,-8.7c.5,-3,1,-6,1.4,-9.1c.5,-3,1,-5.7,1.4,-8.2c.4,-2.5,.7,-4.6,1,-6.3c.4,-1.7,.5,-2.7,.6,-3.1c.3,.2,.6,.6,.9,1.2c.3,.6,.3,1.1,.2,1.5c.5,-.5,.7,-1,.7,-1.7c-.1,-.6,-.2,-1,-.3,-1.3c0,0,.1,0,.2,0c.3,0,.6,0,.9,.2c.5,.1,.8,.5,1.1,1.1c0,-.3,0,-.6,.1,-.9c0,-.3,-.1,-.5,-.2,-.6c.1,0,.3,0,.5,0c.2,0,.5,0,.8,0c.7,.1,1.3,.2,1.9,.4c.6,.2,1.1,.5,1.6,1c.4,.4,.5,1,.4,1.7c-.2,.8,-.5,2.1,-.9,4c-.3,1.9,-.7,4.1,-1.2,6.5c-.5,2.5,-.9,5.2,-1.5,8c-.5,2.9,-1.1,5.7,-1.6,8.5c-.5,2.7,-1,5.3,-1.5,7.8c-.5,2.4,-.9,4.4,-1.2,6c-.1,.1,-.4,.1,-.7,.1Z"/></clipPath>
<clipPath id="cc"><path d="M413.4,192.1l6.7,-1.4c-.1,0,-.3,0,-.4,0c-1.9,0,-6.3,1.4,-6.3,1.4Zm8.4,1.8l-1.4,-2.2l-9.2,2l.5,-2.6l-4.5,-2l3.1,-2.5L409,184.7l5.8,-.3l-6.9,-5l2,-1.2l-1.4,-4.3l4.5,.8l.8,-2.1l6,6.1l-.5,-5.7l2,1l2.1,-3.4l2.6,4.2l2.5,-.9l-.7,9.4l2.3,1.1l-4.8,4.1l-3.5,5.4Z"/></clipPath>
<clipPath id="cd"><path d="M499,202.8c-.1,-1.8,-.6,-3.5,-1.7,-4.8c37.9,-16.3,61.7,-47.8,56,-78.9C549.6,98.4,533.5,82,510.9,72.9c25.6,8.7,44.1,26.1,48.2,48.7c.5,2.9,.8,5.7,.8,8.6v1.3c-.3,29,-24.7,56.9,-60.9,71.3Z"/></clipPath>
<clipPath id="ce"><path d="M519.7,102.7c-4.2,0,-7.6,-.7,-7.6,-.7c0,0,3.8,-.6,7.5,-6.2c2.2,-3.4,5.9,-4.1,8.5,-4.1c1.7,0,2.9,.3,2.9,.3c-1.7,2.7,-6.7,6,-6.7,6c5.4,-1.1,11,-5.1,11,-5.1c-1.2,8.2,-9.3,9.8,-15.6,9.8Z"/></clipPath>
<clipPath id="cf"><path d="M540.3,92.7l-.1,-.1c0,0,0,.1,.1,.1Zm-.1,-.1v0c0,0,-.1,-.1,-.1,-.1l.1,.1Zm-.1,-.1C528.9,78.4,504.5,78.2,504.5,78.2c12.2,2.1,25.9,9.7,25.9,9.7c-.2,.1,-.4,.1,-.6,.2c-1.4,.6,-4.7,1.7,-9.4,1.7c-1.2,0,-2.5,-.1,-3.9,-.3c-5.2,-.8,-10.2,-2.9,-14.4,-5.3c-5.5,-3.5,-9.9,-4.8,-13.3,-4.8c-2,0,-3.6,.4,-5,1.1c1,-4.2,4.5,-8.4,12.4,-9.3c1.3,-.2,2.6,-.2,3.9,-.2c17.7,0,33.6,13.4,33.6,13.4l6.4,8.1Z"/></clipPath>
<clipPath id="cg"><path d="M513.7,175.8c-1.8,0,-3.3,-1.5,-3.3,-3.3c0,-1.8,1.5,-3.2,3.3,-3.2c1.8,0,3.2,1.4,3.2,3.2c0,1.8,-1.4,3.3,-3.2,3.3Z"/></clipPath>
<clipPath id="ch"><path d="M519.5,152.7c-.9,0,-1.6,-.7,-1.6,-1.5c0,-.9,.7,-1.6,1.6,-1.6c.9,0,1.6,.7,1.6,1.6c0,.8,-.7,1.5,-1.6,1.5Z"/></clipPath>
<clipPath id="ci"><path d="M420.1,95.9c-.8,0,-1.5,-.7,-1.5,-1.5c0,-.9,.7,-1.6,1.5,-1.6c.9,0,1.6,.7,1.6,1.6c0,.8,-.7,1.5,-1.6,1.5Z"/></clipPath>
<clipPath id="cj"><path d="M529.6,163.6c-1.4,0,-2.6,-1.2,-2.6,-2.6c0,-1.4,1.2,-2.6,2.6,-2.6c1.4,0,2.6,1.2,2.6,2.6c0,1.4,-1.2,2.6,-2.6,2.6Z"/></clipPath>
<clipPath id="ck"><path d="M434.1,195.5c-3.8,0,-7.3,-2.1,-9.5,-7.6l.9,-1.3c0,0,2.4,5.9,7.9,5.9c.7,0,1.4,-.1,2.1,-.3c7,-1.7,11.4,-10.5,11.4,-10.5l.9,1.6l2.8,-2l1.6,-1.8l1.6,-4l.3,-.4l-1,-3.7c0,0,3.4,3.2,.1,10.5c-2.2,5,-11.3,13.6,-19.1,13.6Z"/></clipPath>
<clipPath id="cl"><path d="M439.1,200.3c-8.5,0,-9.9,-9.5,-6.8,-17.3l5.2,3.4c0,0,-3.7,8.9,.6,10.5c.5,.2,1.1,.3,1.8,.3c4.7,0,13,-5.3,18.8,-13.7l-1,4.8c0,0,-7.5,11,-17.5,11.9c-.4,.1,-.8,.1,-1.1,.1Z"/></clipPath>
<clipPath id="cm"><path d="M380.6,156c.2,-.3,.2,-.9,.1,-1.6c-.1,-.7,-.3,-1.3,-.4,-1.7c0,.5,.1,1.1,.1,1.8c0,.6,.1,1.2,.2,1.5Zm-20.1,10.5v0c.6,-.6,1.3,-1.8,2,-3.5c.7,-1.8,1.4,-3.6,2,-5.6c.6,-2,1.1,-3.8,1.5,-5.6c.4,-1.7,.6,-2.9,.5,-3.4c0,.3,-.2,.9,-.5,1.9c-.3,1,-.6,2.1,-1,3.4c-.4,1.3,-.9,2.6,-1.3,4.1c-.4,1.4,-.9,2.8,-1.3,4c-.4,1.2,-.8,2.3,-1.2,3.2c-.3,.9,-.6,1.4,-.7,1.5Zm19.6,-16.2c0,-.4,0,-1.1,-.1,-2.2c-.1,-1.1,-.2,-2.4,-.4,-3.7c-.2,-1.4,-.3,-2.7,-.5,-4c-.2,-1.3,-.4,-2.3,-.6,-3.1c0,.4,.1,1.1,.2,2.3c.1,1.1,.3,2.4,.5,3.8c.2,1.4,.4,2.7,.6,4c.2,1.3,.3,2.3,.3,2.9Zm-1,7.4c.1,-.4,.1,-1.2,0,-2.5c0,-1.2,-.2,-2.8,-.3,-4.5c-.2,-1.8,-.4,-3.7,-.6,-5.8c-.3,-2,-.5,-4,-.8,-5.8c-.3,-1.9,-.6,-3.5,-.9,-4.9c-.3,-1.4,-.6,-2.4,-.9,-3.1c.1,.3,.3,1,.5,2.4c.2,1.3,.4,2.9,.7,4.8c.2,1.9,.5,3.9,.7,6.1c.3,2.2,.5,4.3,.8,6.2c.2,1.8,.4,3.5,.5,4.8c.2,1.3,.3,2.1,.3,2.3Zm19.5,11c.2,-1.8,.5,-4.2,.9,-7.1c.4,-2.8,.8,-5.9,1.3,-9.3c.6,-3.3,1.1,-6.7,1.8,-10.2c.6,-3.5,1.2,-6.8,1.8,-10c.6,-3.1,1.3,-6,1.9,-8.5c.6,-2.6,1.2,-4.5,1.8,-5.9c-.5,.5,-1.1,1.9,-1.8,4c-.7,2.1,-1.4,4.6,-2.1,7.6c-.7,3,-1.5,6.3,-2.1,9.9c-.7,3.7,-1.4,7.3,-1.9,10.9c-.6,3.5,-1,7,-1.3,10.3c-.3,3.2,-.4,6,-.3,8.3Zm-34.1,7.6c-2.4,-.9,-4.3,-2.3,-5.6,-4c-1.4,-1.7,-2.3,-3.6,-2.9,-5.6c-.6,-2,-.8,-4.1,-.8,-6.3c0,-2.1,.3,-4.2,.7,-6.1c.5,-2,1.1,-3.7,1.8,-5.1c.7,-1.5,1.4,-2.5,2.1,-3.1c-2.1,3.8,-3.4,7.4,-3.8,11c-.5,3.6,-.1,6.9,.9,9.8c-.2,-1,-.4,-2.2,-.5,-3.4c0,-1.2,.2,-2.1,.6,-2.7c-.2,.5,-.2,1,.1,1.4c.2,.3,.5,.6,.8,.9c.4,.3,.7,.6,.9,.9c.3,.4,.4,.8,.3,1.3c1.3,-3.2,2.6,-6.7,3.8,-10.6c1.2,-4,2.2,-8.4,3.1,-13.2c.8,-4.9,1.3,-10.3,1.5,-16.3c.2,-6,.1,-12.6,-.5,-19.9c.1,0,.3,0,.5,0c.2,0,.4,0,.6,0c.6,0,1.1,.1,1.7,.2c.6,.1,1.2,.3,1.8,.6c.6,.2,1.1,.5,1.4,.9c.2,.1,.4,.4,.6,.7c.8,1.3,1.8,3.7,2.7,7.2c1,3.5,2,7.5,2.9,12.1c.9,4.5,1.6,9.3,2.2,14.4c.5,5,.7,9.8,.7,14.3c.4,-4.3,1.2,-8.7,2.2,-13.2c1,-4.5,2.2,-8.9,3.6,-13.1c1.4,-4.3,2.9,-8.3,4.6,-12c1.7,-3.7,3.6,-6.9,5.6,-9.7c-1.1,2.2,-2.1,4.3,-3.1,6.6c-1.1,2.2,-2,4.4,-2.9,6.7c-.9,2.2,-1.6,4.4,-2.3,6.5c-.6,2.2,-1.2,4.2,-1.5,6.1c1.4,-4.4,2.8,-8.4,4.3,-12.2c1.5,-3.8,3.1,-7.1,4.6,-9.9c1.6,-2.9,3.1,-5.1,4.7,-6.8c1.5,-1.7,2.9,-2.6,4.2,-2.8c.2,-.1,.3,-.2,.5,-.2c.3,0,.7,.2,1.2,.5c.8,.5,1.6,1.2,2.3,2.2c.8,.9,1.4,2,1.8,3.1c.4,1.2,.5,2.2,.2,3c-2.1,6,-3.9,12.1,-5.2,18.1c-1.4,6,-2.6,11.6,-3.5,16.9c-.9,5.3,-1.6,10,-2.1,14.2c-.6,4.2,-1,7.6,-1.4,10c-.6,.9,-1.4,1.7,-2.2,2.2c-.9,.6,-1.8,1.1,-2.8,1.4c-1,.3,-1.9,.5,-2.8,.6c-.5,.1,-1,.1,-1.4,.1c-.3,0,-.7,0,-1,-.1c.8,-6,1.9,-13.4,3.6,-22.2c1.7,-8.8,4.2,-19.2,7.5,-31.3c-1.8,2.8,-3.6,5.9,-5.1,9.3c-1.5,3.4,-2.9,6.8,-4.1,10.5c-1.2,3.6,-2.2,7.3,-3.1,11c-.8,3.7,-1.4,7.3,-1.9,10.7c-.1,.2,-.5,.4,-1.2,.5c-.8,.2,-1.7,.3,-2.7,.5c-.9,.2,-1.9,.3,-2.8,.4c-.5,0,-.8,0,-1.1,0c-.3,0,-.5,0,-.6,0c-.1,-1.9,-.2,-4.1,-.4,-6.4c-.2,-2.4,-.4,-4.9,-.7,-7.5c-.3,-2.6,-.6,-5.2,-1,-7.8c-.4,-2.6,-.9,-5.2,-1.3,-7.6c-.2,3.6,-.5,7.3,-.9,11c-.5,3.8,-1.1,7.5,-1.9,11.2c-.8,3.7,-1.8,7.2,-3,10.7c-1.3,3.4,-2.7,6.6,-4.5,9.4Z"/></clipPath>
<clipPath id="cn"><path d="M445.2,141.3v0c.1,-.1,.3,-.6,.6,-1.4c.4,-.9,.9,-1.9,1.4,-2.9c.5,-1.1,1.1,-2.1,1.7,-3.1c.5,-1,1,-1.7,1.5,-2.1c-.5,.2,-.9,.6,-1.3,1c-.5,.5,-.8,.8,-.9,.9q0,.1,.1,.2c0,.1,0,.2,.1,.3c-.2,0,-.3,.2,-.5,.4c-.2,.2,-.3,.3,-.3,.4c.1,0,.1,.1,.1,.2c-.1,0,0,.1,0,.1c-.1,.2,-.3,.4,-.4,.4c0,.1,-.1,.4,-.3,1c-.2,.5,-.4,1,-.7,1.7c-.3,.6,-.5,1.2,-.7,1.8c-.2,.6,-.4,.9,-.4,1.1Zm27.9,-2.2v0c.2,-1.1,.4,-2.3,.7,-3.5c.4,-1.2,.7,-2.4,1.2,-3.5c.4,-1.1,.8,-2,1.2,-2.9c.4,-.8,.7,-1.5,1,-1.9c-.3,.4,-.7,1.1,-1.2,2c-.5,.9,-.9,1.9,-1.3,3.1c-.4,1.1,-.8,2.3,-1.1,3.4c-.3,1.2,-.5,2.3,-.5,3.3Zm.5,-9.2c.4,-.5,.7,-1.1,1,-1.7c.3,-.7,.5,-1.2,.8,-1.5c-.3,.3,-.6,.8,-.9,1.4c-.4,.7,-.7,1.3,-.9,1.8ZM455,135.6v0c0,-.2,.2,-.8,.5,-1.9c.3,-1,.6,-2.1,1,-3.3c.3,-1.2,.6,-2.3,1,-3.4c.3,-1.1,.5,-1.7,.6,-2c-.3,.1,-.5,.2,-.7,.4c-.1,.3,-.3,.9,-.5,1.9c-.2,1,-.5,2,-.8,3.2c-.2,1.1,-.5,2.2,-.7,3.2c-.2,1,-.4,1.7,-.4,1.9Zm3.6,-7c.1,-.2,.1,-.5,.3,-1c.1,-.5,.3,-1,.4,-1.4c.1,-.5,.3,-1,.4,-1.3c.1,-.4,.2,-.7,.1,-.7c0,0,-.1,0,-.1,.1q-.1,.1,-.2,.1c-.1,.3,-.2,.9,-.4,1.7c-.2,.8,-.4,1.6,-.5,2.5Zm1.5,2.1v0c.1,-.4,.3,-.9,.6,-1.6c.3,-.8,.5,-1.6,.8,-2.4c.3,-.9,.6,-1.6,.8,-2.3c.2,-.7,.4,-1.1,.4,-1.3c-.1,.2,-.3,.6,-.5,1.3c-.2,.6,-.5,1.3,-.7,2.1c-.3,.8,-.6,1.5,-.9,2.3c-.2,.8,-.4,1.4,-.5,1.9Zm-20.7,26.2c-.2,0,-.5,0,-.7,-.1c-.6,-.3,-1.2,-.7,-1.8,-1.2c-.7,-.6,-1.2,-1.1,-1.7,-1.7c-.4,-.6,-.7,-1.1,-.8,-1.3c1.7,-6.4,3.1,-12,4.1,-16.7c1,-4.7,1.9,-9.1,2.7,-13.2c.4,-.4,1,-.8,1.8,-1.3c.8,-.4,1.7,-.8,2.5,-1.1c.9,-.3,1.7,-.6,2.4,-.8c.5,-.1,.9,-.2,1.1,-.2c.2,0,.3,.1,.3,.1c-.2,.9,-.4,1.8,-.6,2.7c-.2,.9,-.5,1.9,-.7,3c1.4,-2.2,2.9,-4.1,4.4,-5.9c1.5,-1.7,3.1,-3.2,4.9,-4.3c.8,.2,1.7,.6,2.8,1c1,.4,2,.9,2.9,1.4c1,.5,1.8,1,2.4,1.4c.7,.5,1,.9,1.1,1.2c-.6,.8,-1.2,1.8,-2,3.1c-.8,1.3,-1.5,2.9,-2.2,4.8c1.9,-2.5,3.9,-4.6,6,-6.2c2.1,-1.6,4.4,-3,6.9,-4.3c1,.4,1.9,1,2.6,1.9c.7,.8,1.3,1.7,1.8,2.7c.5,.9,.9,1.9,1.1,2.7c.2,.9,.4,1.6,.5,2.1c-.2,.3,-.4,.6,-.6,.9c-.1,.3,-.3,.6,-.4,1c.5,-.7,.9,-1.1,1.2,-1.1c-.8,.9,-1.6,2.3,-2.5,4.1c-.8,1.8,-1.7,3.9,-2.5,6.4c-.9,2.9,-1.5,5.2,-1.6,7c-.2,1.8,0,2.8,.6,3c.2,.1,.5,.1,.7,.1c.7,0,1.3,-.3,2,-.8c.9,-.9,1.8,-2,2.7,-3.4c1,-1.5,1.9,-3.1,2.8,-4.9c.5,-1.1,1,-2.1,1.4,-3.1c.5,1.3,1.2,2.5,2.1,3.6c-.6,1.2,-1.2,2.5,-1.9,3.7c-1,1.9,-2.1,3.6,-3.4,5.1c-1.2,1.5,-2.5,2.6,-3.8,3.5c-.9,.6,-2,.9,-3,.9c-.3,0,-.7,0,-1,-.1c-1.4,-.3,-2.6,-1,-3.6,-2.2c-1,-1.2,-1.7,-2.9,-2.1,-5c-.3,-2.2,-.2,-4.8,.3,-7.9c.5,-3,1.6,-6.6,3.3,-10.7c-1.7,.8,-3.4,2.2,-4.9,4.1c-1.5,1.8,-2.8,4,-4.1,6.4c-1.2,2.5,-2.3,5.2,-3.2,8c-1,2.9,-1.8,5.7,-2.4,8.6l-7.6,1.2c.2,-1.9,.6,-4.2,1.1,-6.7c.5,-2.5,1,-5.1,1.7,-7.8c.6,-2.7,1.3,-5.3,2,-7.9c.7,-2.6,1.4,-4.9,2.2,-7c-.8,.3,-1.9,1.3,-3.2,2.9c-1.2,1.6,-2.6,3.7,-4.1,6.3c-1.4,2.5,-2.9,5.5,-4.4,8.9c-1.5,3.3,-2.8,6.9,-4,10.8c-.2,.3,-.3,.6,-.4,1c-.1,.3,-.2,.6,-.2,.9c-.3,.3,-.7,.4,-1,.4Z"/></clipPath>
<clipPath id="co"><path d="M536,136.4c.6,-.3,1,-.9,1.2,-1.8c.2,-.8,.2,-1.7,.2,-2.6c-.1,-.9,-.2,-1.7,-.4,-2.5c-.2,-.8,-.3,-1.3,-.4,-1.6c.1,.6,.3,1.3,.4,2c.2,.8,.3,1.6,.3,2.4c0,.9,-.1,1.6,-.3,2.4c-.2,.7,-.5,1.3,-1,1.7Zm.3,-7.4v0c-.1,-.6,-.2,-1.3,-.4,-1.9c-.3,-.7,-.5,-1.3,-.8,-1.9c-.3,-.6,-.7,-1.1,-1.1,-1.5c-.3,-.4,-.7,-.7,-1.1,-.8c.4,.2,.8,.5,1.1,1c.4,.4,.7,1,1,1.6c.3,.6,.6,1.2,.8,1.8c.2,.6,.4,1.2,.5,1.7Zm-11.1,-5.7q-.2,-.1,-.2,-.2c-.1,-.1,0,-.2,.1,-.2c.1,0,.2,.1,.2,.2q0,.1,-.1,.2Zm-.3,-.6c-.1,0,-.1,-.1,0,-.1c0,-.1,.1,-.1,.1,-.1c.1,0,.1,.1,.1,.1q-.1,.1,-.2,.1Zm.9,.2c-.3,0,-.6,-.1,-.7,-.2c.1,-.2,.3,-.4,.6,-.5q.1,0,.2,0c.1,0,.3,0,.3,.2c.1,.3,0,.5,-.4,.5Zm9.4,9.6v0c.3,-1.7,.1,-3.3,-.5,-4.7c-.5,-1.5,-1.3,-2.7,-2.2,-3.8c-.9,-1.1,-1.8,-1.9,-2.8,-2.6c-.9,-.6,-1.7,-1,-2.3,-1.1c.2,.1,.7,.3,1.5,.8c.9,.5,1.8,1.2,2.8,2.2c.9,1,1.8,2.3,2.5,3.8c.8,1.5,1.1,3.3,1,5.4Zm1.9,-17.1c-.1,-1.2,-.9,-2.1,-2.6,-2.7c-1,-.4,-2.1,-.6,-3.2,-.6c-.8,0,-1.6,0,-2.5,.2c.3,0,.8,-.1,1.6,-.1q.1,0,.1,0c.8,0,1.6,.1,2.4,.3c.9,.1,1.8,.4,2.5,.9c.8,.4,1.4,1.1,1.7,2Zm-.5,-2.7v0c0,-.4,-.4,-.7,-1.2,-1c-.6,-.2,-1.4,-.3,-2.3,-.3c-.2,0,-.4,0,-.6,0c.6,.1,1.2,.2,2.1,.4c.8,.2,1.5,.5,2,.9Zm.4,-.6v0c-.1,-.3,-.4,-.6,-.8,-.7c-.3,-.2,-.8,-.3,-1.3,-.4c-.6,-.1,-1.1,-.1,-1.6,-.1q-.1,0,-.2,0c-.4,0,-.8,0,-1.1,.1c.2,0,.4,0,.6,0c1.4,0,2.5,.1,3.1,.3c.7,.3,1.1,.6,1.3,.8Zm-9.4,30.8c-1.4,0,-2.8,-.2,-4.2,-.6c-2,-.5,-3.7,-1.6,-5.1,-3.2c-1.4,-1.6,-2.3,-3.4,-2.7,-5.6c-.4,-2.1,-.4,-4.4,.2,-6.8c.5,-2.4,1.7,-4.7,3.4,-7c.4,-.5,.8,-.8,1.3,-.9c.2,0,.4,0,.6,0c.2,0,.4,0,.6,.1c.4,.2,1,.6,1.9,1.3c.8,.7,1.4,1.2,1.7,1.7c-.2,-.1,-.4,-.2,-.6,-.2c-.1,0,-.3,0,-.5,.1c-.4,.2,-.7,.4,-.9,.7c.2,-.2,.4,-.3,.8,-.4c.1,0,.2,0,.3,0c.2,0,.4,0,.6,.2c-.4,.2,-.8,.4,-1.1,.8c-.3,.3,-.6,.7,-.9,1.1c.3,-.2,.6,-.4,.8,-.5c.3,-.1,.5,-.2,.8,-.4c-.5,.6,-1.1,1.3,-1.8,2.2c-.6,.8,-1.1,1.7,-1.5,2.7c-.4,1,-.6,2,-.7,3.1c-.1,1.2,.1,2.3,.6,3.3c.4,1.1,1.1,1.9,2,2.6c.9,.6,1.9,1,3,1.2c.4,.1,.9,.1,1.3,.1c.6,0,1.3,0,1.9,-.2c1.1,-.3,2,-.8,2.9,-1.6c.8,-.7,1.4,-1.8,1.7,-3c.4,-1.3,.3,-2.8,-.1,-4.6c-.4,-1.5,-1.2,-3.1,-2.4,-4.6c-1.2,-1.5,-3,-2.8,-5.3,-3.8c-.2,-.1,-.6,-.2,-1,-.5c-.5,-.3,-.8,-.4,-1.1,-.5c-2.2,-1.4,-3.6,-2.8,-4.3,-4.3c-.6,-1.6,-.5,-3,.3,-4.3c.7,-1.3,2.2,-2.5,4.2,-3.5c2.1,-1,4.7,-1.6,7.8,-1.9c.7,0,1.4,-.1,2,-.1c.8,0,1.6,.1,2.3,.1c1.3,.2,2.5,.6,3.4,1.1c1,.6,1.7,1.5,2.1,2.5c.5,1.1,.6,2.6,.3,4.3c0,-.7,-.1,-1.3,-.3,-2c0,.9,-.2,1.7,-.5,2.5c-.3,.7,-.8,1.4,-1.5,1.9c-.7,.5,-1.5,.9,-2.4,1.2c-.5,.1,-1,.2,-1.5,.2c-.5,0,-1.1,-.1,-1.6,-.2c.9,-.2,1.4,-.6,1.6,-1.2c.1,-.5,-.2,-1,-.9,-1.6c.3,.3,.5,.7,.5,1.1c0,.4,-.1,.8,-.3,1.1c.1,-.6,.1,-1.1,-.1,-1.5c-.3,-.4,-.6,-.7,-1,-1c-.4,-.3,-.8,-.6,-1.3,-.7c-.5,-.2,-.9,-.3,-1.3,-.4c-.4,0,-.8,0,-1.1,0c-.4,0,-.7,0,-1,.1c-.6,.1,-1,.3,-1.3,.6c-.2,.3,-.2,.6,0,1c.2,.4,.7,.8,1.5,1.1c.2,.1,.6,.3,1.2,.6c.7,.3,1.1,.5,1.2,.6c2.8,1.4,5,2.9,6.5,4.7c1.5,1.8,2.5,3.6,2.9,5.5c1,-2.2,1.9,-4.2,2.6,-6.1c.6,-1.9,1.1,-3.1,1.3,-3.6c.2,-.6,.5,-1,1,-1.3c.3,-.2,.6,-.3,.9,-.3c.1,0,.2,0,.3,0c.3,.1,.6,.4,.8,.8c.2,.5,.2,1.2,-.1,2.1c-.4,1.2,-.9,3,-1.7,5.1c-.8,2.2,-1.7,4.4,-2.8,6.6c-1.1,2.3,-2.4,4.3,-3.8,6.3c-1.5,1.9,-3,3.2,-4.5,4c-1.5,1,-3.4,1.6,-5.6,1.9c-.8,.1,-1.5,.2,-2.3,.2Z"/></clipPath>
<clipPath id="cp"><path d="M405.4,148.3v0c-3.5,-8.4,3.7,-13.8,3.7,-13.8c-8.9,5.5,-3.7,13.8,-3.7,13.8Zm16.5,5.1c4.2,0,6.9,-1,8.7,-2.2c2,-1.5,2.8,-3.5,3.1,-5.5c0,-.3,0,-.6,0,-.8c0,-1.5,-.4,-2.8,-.9,-3.7c-1.1,-2.1,-3,-3.9,-4.8,-5.8c-1.9,-2,-3.9,-4.4,-4,-7.8c-.1,-1.8,-.5,-2.1,-.8,-2.4c-.2,-.1,-.4,-.2,-.5,-.2c-.2,0,-.3,-.1,-.4,-.1h-.2c0,0,-.1,0,-.2,0c-.1,0,-.3,0,-.5,.1c-.4,.3,-.8,.5,-1.3,2.2c-.8,3.4,-3.2,5.4,-5.3,6.9c-2.2,1.6,-4.4,2.9,-5.9,4.8c-.8,.9,-1.5,2.6,-1.7,4.3c0,.2,0,.5,0,.8c0,1.8,.5,3.5,2,5.1c1.7,1.8,4.9,3.5,10.4,4.2c.8,0,1.6,.1,2.3,.1Zm-.3,5.8c-6.1,0,-11.4,-2.5,-11.4,-2.5c3.1,1,6,1.4,8.7,1.4c.8,0,1.5,0,2.2,-.1c-.5,0,-.9,0,-1.4,0c0,0,-.1,0,-.1,0q-.1,0,-.2,0h-.1c-.1,0,-.2,0,-.2,0l-.1,-.1q-.2,0,-.3,0c-6,-.7,-10.2,-2.7,-12.9,-5.5c-2.4,-2.6,-3.3,-5.6,-3.3,-8.4c0,-.4,0,-.9,0,-1.3c.3,-2.6,1.3,-5,2.7,-6.8c2.2,-2.6,4.8,-4.2,6.8,-5.6c2,-1.5,3.2,-2.6,3.6,-4.2c.6,-2.6,1.9,-4.3,3.5,-5.2c1.1,-.6,2.1,-.7,2.8,-.7h.1c.1,0,.3,0,.4,0q.1,0,.2,0c0,.1,.1,.1,.1,.1h.1q.1,0,.1,0q.1,0,.2,0c.5,0,1.8,.2,3.1,1.3c1.3,1.1,2.4,3.1,2.5,5.7c0,1.7,1,3,2.7,4.8c1.6,1.8,4,3.8,5.6,6.9l-1,.5l1,-.5c.9,1.6,1.4,3.7,1.4,5.9c0,.4,0,.8,-.1,1.2c-.2,3.1,-1.7,6.5,-5,8.9c-3.5,3.2,-7.8,4.2,-11.7,4.2Z"/></clipPath>
<clipPath id="cq"><path d="M487.7,140.4v0c-4.3,-8,2.4,-14.1,2.4,-14.1c-8.4,6.4,-2.4,14.1,-2.4,14.1Zm14.5,2.3c.9,0,1.6,-.1,2.4,-.1c4.1,-.5,6.8,-1.7,8.3,-3.1c1.9,-1.7,2.6,-3.7,2.6,-5.7c0,-.3,0,-.6,-.1,-.9c-.1,-1.4,-.6,-2.7,-1.2,-3.5c-1.3,-2,-3.3,-3.6,-5.4,-5.3c-2,-1.8,-4.2,-4,-4.7,-7.4c-.3,-1.7,-.8,-2,-1.1,-2.3c-.2,-.1,-.4,-.2,-.5,-.2h-.1c-.1,0,-.2,0,-.3,0c0,0,-.1,0,-.1,0q-.1,0,-.2,0h-.1c-.1,0,-.3,.1,-.5,.2c-.3,.3,-.7,.6,-1,2.3c-.5,3.4,-2.7,5.6,-4.7,7.4c-2,1.8,-4,3.4,-5.4,5.4c-.6,1,-1.2,2.7,-1.2,4.4c0,.2,0,.5,.1,.8c.2,1.7,.9,3.5,2.5,4.9c1.9,1.6,5.2,3,10.7,3.1Zm.2,5.8c-5.1,0,-9.2,-1.4,-9.2,-1.4c2.1,.4,4.2,.6,6.1,.6c1.7,0,3.4,-.1,4.9,-.4c-.5,0,-.9,.1,-1.4,.1c0,0,-.1,0,-.1,0q-.1,0,-.2,0h-.1q-.1,0,-.2,0h-.1q-.2,0,-.3,0c-6.1,-.1,-10.5,-1.7,-13.4,-4.2c-2.6,-2.3,-3.8,-5.3,-4.1,-8.1c-.1,-.4,-.1,-.8,-.1,-1.2c0,-2.7,.8,-5.1,2,-7c1.9,-2.9,4.4,-4.7,6.2,-6.3c1.9,-1.7,2.9,-2.9,3.1,-4.5c.4,-2.7,1.6,-4.5,3,-5.5c1.1,-.8,2.1,-1,2.8,-1c.2,-.1,.3,-.1,.4,-.1c.1,0,.2,0,.3,0c0,0,.1,0,.1,.1c0,-.1,.1,-.1,.1,-.1c0,0,.1,0,.1,0c0,0,.1,0,.2,0c.5,0,1.8,.1,3.2,1c1.4,1,2.7,2.8,3,5.5c.2,1.6,1.3,2.9,3.2,4.5c1.8,1.6,4.3,3.4,6.2,6.2l-.9,.7l.9,-.7c1.1,1.6,1.8,3.6,2,5.8c.1,.4,.1,.8,.1,1.2c0,3.2,-1.1,6.7,-4.1,9.3c-3.9,4.4,-9.2,5.5,-13.7,5.5Z"/></clipPath>
<clipPath id="cr"><path d="M417.4,139.7c-.2,0,-.4,-.1,-.6,-.2c-.5,-.3,-.7,-1,-.4,-1.6l1.6,-2.5c.2,-.4,.6,-.6,1,-.6c.2,0,.4,.1,.6,.2c.5,.3,.7,1,.3,1.5l-1.5,2.6c-.3,.4,-.6,.6,-1,.6Z"/></clipPath>
<clipPath id="cs"><path d="M424.9,140.4c-.5,0,-1,-.3,-1.1,-.8l-.9,-2.8c-.2,-.6,.1,-1.2,.7,-1.4c.1,-.1,.2,-.1,.4,-.1c.4,0,.9,.3,1,.8l.9,2.8c.2,.6,-.1,1.3,-.7,1.5c-.1,0,-.2,0,-.3,0Z"/></clipPath>
<clipPath id="ct"><path d="M498.5,130.4c-.1,0,-.3,0,-.5,-.1c-.5,-.3,-.8,-1,-.5,-1.5l1.4,-2.7c.1,-.4,.6,-.7,1,-.7c.1,0,.3,.1,.5,.1c.5,.3,.8,1,.5,1.6l-1.3,2.7c-.2,.4,-.6,.6,-1.1,.6Z"/></clipPath>
<clipPath id="cu"><path d="M506,130.5c-.4,0,-.8,-.3,-1,-.7l-1.2,-2.7c-.2,-.6,.1,-1.3,.6,-1.5c.2,-.1,.3,-.1,.5,-.1c.4,0,.8,.3,1,.7l1.2,2.7c.2,.6,0,1.3,-.6,1.5c-.2,.1,-.3,.1,-.5,.1Z"/></clipPath>
<clipPath id="cv"><path d="M494.8,140c-1.6,-.4,-5.4,-3.7,-4.3,-7.9c1,-4.4,6.1,-6.9,6.1,-6.9c-10,7.3,-1.8,14.8,-1.8,14.8Z"/></clipPath>
<clipPath id="cw"><path d="M412.8,150.4v0c-1.6,-.4,-5.4,-3.7,-4.3,-7.9c1,-4.4,6.1,-6.9,6.1,-6.9c-9.9,7.3,-1.8,14.8,-1.8,14.8Z"/></clipPath>
<clipPath id="cx"><path d="M141.8,330.7c-33.4,0,-63.6,-13.1,-86,-34.4V206.9c0,-34.8,28.3,-63.1,63.2,-63.1H249.7c10.6,18.3,16.7,39.6,16.7,62.3c0,68.8,-55.8,124.6,-124.6,124.6Z"/></clipPath>
<clipPath id="cy"><path d="M766.5,330.7C697.7,330.7,642,274.9,642,206.1c0,-22.7,6,-44,16.6,-62.3H789.4c34.8,0,63.1,28.3,63.1,63.1v89.4c-22.4,21.3,-52.6,34.4,-86,34.4Z"/></clipPath>
<clipPath id="cz"><path d="M104.2,1112.6c-7,0,-12.7,-5.7,-12.7,-12.7V924.7c0,-7,5.7,-12.7,12.7,-12.7H430.9c7,0,12.7,5.7,12.7,12.7v175.2c0,7,-5.7,12.7,-12.7,12.7Z"/></clipPath>
<clipPath id="c10"><path d="M488.4,1112.6c-7,0,-12.7,-5.7,-12.7,-12.7V959.6c0,-7,5.7,-12.7,12.7,-12.7H815.1c7,0,12.7,5.7,12.7,12.7v140.3c0,7,-5.7,12.7,-12.7,12.7Z"/></clipPath>
<style type="text/css"><![CDATA[
.g0{
fill: #FFFFFF;
}
.g1{
fill: #F4363D;
}
.g2{
fill: #00A551;
}
.g3{
fill: none;
stroke: #FFDA00;
stroke-width: 1.527;
stroke-linecap: butt;
stroke-linejoin: miter;
}
]]></style>
</defs>
<image clip-path="url(#c0)" preserveAspectRatio="none" x="-514" y="0" width="1938" height="1293" xlink:href="img/1.jpg"/>
<image clip-path="url(#c1)" preserveAspectRatio="none" x="-9" y="1131" width="907" height="133" xlink:href="img/2.png"/>
<image x="55" y="143" width="799" height="1061" xlink:href="shade/1.png"/>
<g clip-path="url(#c0)">
<g opacity="0.2">
<path d="M610.3,106.6c0,86,-69.6,155.6,-155.6,155.6c-85.9,0,-155.6,-69.6,-155.6,-155.6c0,-85.9,69.7,-155.5,155.6,-155.5c86,0,155.6,69.6,155.6,155.5Z" class="g0"/>
</g>
<path d="M593.1,109.6C593.1,186,531.2,248,454.7,248C378.3,248,316.3,186,316.3,109.6c0,-76.5,62,-138.4,138.4,-138.4c76.5,0,138.4,61.9,138.4,138.4Z" class="g0"/>
</g>
<image clip-path="url(#c2)" preserveAspectRatio="none" x="426" y="64" width="23" height="54" xlink:href="img/3.jpg"/>
<image clip-path="url(#c3)" preserveAspectRatio="none" x="405" y="165" width="8" height="7" xlink:href="img/4.jpg"/>
<image clip-path="url(#c4)" preserveAspectRatio="none" x="488" y="98" width="8" height="6" xlink:href="img/5.jpg"/>
<image clip-path="url(#c5)" preserveAspectRatio="none" x="349" y="135" width="13" height="12" xlink:href="img/6.jpg"/>
<image clip-path="url(#c6)" preserveAspectRatio="none" x="445" y="38" width="29" height="75" xlink:href="img/7.jpg"/>
<image clip-path="url(#c7)" preserveAspectRatio="none" x="484" y="198" width="13" height="11" xlink:href="img/8.jpg"/>
<image clip-path="url(#c8)" preserveAspectRatio="none" x="431" y="169" width="24" height="20" xlink:href="img/9.jpg"/>
<image clip-path="url(#c9)" preserveAspectRatio="none" x="455" y="149" width="34" height="49" xlink:href="img/10.jpg"/>
<image clip-path="url(#ca)" preserveAspectRatio="none" x="466" y="160" width="3" height="7" xlink:href="img/11.jpg"/>
<image clip-path="url(#cb)" preserveAspectRatio="none" x="487" y="150" width="18" height="45" xlink:href="img/12.jpg"/>
<image clip-path="url(#cc)" preserveAspectRatio="none" x="407" y="170" width="24" height="25" xlink:href="img/13.jpg"/>
<image clip-path="url(#cd)" preserveAspectRatio="none" x="496" y="72" width="66" height="131" xlink:href="img/14.jpg"/>
<image clip-path="url(#ce)" preserveAspectRatio="none" x="511" y="90" width="25" height="17" xlink:href="img/15.jpg"/>
<image clip-path="url(#cf)" preserveAspectRatio="none" x="483" y="68" width="58" height="25" xlink:href="img/16.jpg"/>
<image clip-path="url(#cg)" preserveAspectRatio="none" x="510" y="169" width="8" height="7" xlink:href="img/17.jpg"/>
<image clip-path="url(#ch)" preserveAspectRatio="none" x="517" y="149" width="5" height="5" xlink:href="img/18.jpg"/>
<image clip-path="url(#ci)" preserveAspectRatio="none" x="418" y="92" width="4" height="5" xlink:href="img/19.jpg"/>
<image clip-path="url(#cj)" preserveAspectRatio="none" x="526" y="158" width="7" height="6" xlink:href="img/20.jpg"/>
<image clip-path="url(#ck)" preserveAspectRatio="none" x="424" y="171" width="33" height="34" xlink:href="img/21.jpg"/>
<image clip-path="url(#cl)" preserveAspectRatio="none" x="428" y="183" width="32" height="19" xlink:href="img/22.jpg"/>
<image clip-path="url(#cm)" preserveAspectRatio="none" x="355" y="101" width="58" height="76" xlink:href="img/23.jpg"/>
<image clip-path="url(#cn)" preserveAspectRatio="none" x="434" y="114" width="55" height="44" xlink:href="img/24.jpg"/>
<image clip-path="url(#co)" preserveAspectRatio="none" x="514" y="105" width="35" height="39" xlink:href="img/25.jpg"/>
<image clip-path="url(#cp)" preserveAspectRatio="none" x="400" y="120" width="40" height="44" xlink:href="img/26.jpg"/>
<image clip-path="url(#cq)" preserveAspectRatio="none" x="481" y="109" width="40" height="44" xlink:href="img/27.jpg"/>
<image clip-path="url(#cr)" preserveAspectRatio="none" x="415" y="134" width="6" height="6" xlink:href="img/28.jpg"/>
<image clip-path="url(#cs)" preserveAspectRatio="none" x="422" y="135" width="6" height="6" xlink:href="img/29.jpg"/>
<image clip-path="url(#ct)" preserveAspectRatio="none" x="497" y="125" width="5" height="6" xlink:href="img/30.jpg"/>
<image clip-path="url(#cu)" preserveAspectRatio="none" x="503" y="125" width="6" height="6" xlink:href="img/31.jpg"/>
<image clip-path="url(#cv)" preserveAspectRatio="none" x="486" y="125" width="11" height="16" xlink:href="img/32.jpg"/>
<image clip-path="url(#cw)" preserveAspectRatio="none" x="404" y="135" width="11" height="16" xlink:href="img/33.jpg"/>
<path d="M92.6,69.6c0,10.2,-8.2,18.5,-18.4,18.5C64.1,88.1,55.8,79.8,55.8,69.6c0,-10.1,8.3,-18.4,18.4,-18.4c10.2,0,18.4,8.3,18.4,18.4Z" class="g1"/>
<path d="M80.2,74.7L77.9,72.9c-.5,-.4,-1.1,-.3,-1.5,.1c-.5,.5,-.7,.8,-.8,.9c-.7,.7,-2.2,-.3,-3.8,-1.9C70.3,70.5,69.3,69,70,68.3c0,-.1,.4,-.4,.8,-.8c.5,-.4,.6,-1.1,.2,-1.5L69.2,63.6c-.4,-.4,-.9,-.5,-1.4,-.3c-.6,.3,-1.7,1.2,-2,1.5c-1.7,1.7,.4,5.6,4.1,9.2c3.6,3.7,7.5,5.8,9.2,4.1c.3,-.3,1.2,-1.4,1.5,-2.1c.2,-.4,0,-1,-.4,-1.3Z" class="g0"/>
<path d="M74.5,66.5c-.5,-.1,-1,.3,-.9,.8c0,.3,.3,.6,.6,.7c.4,.1,.7,.3,1,.6c.4,.3,.6,.7,.7,1.1c0,.3,.3,.6,.6,.6c.6,0,.9,-.5,.8,-1c-.1,-.6,-.5,-1.2,-1,-1.8c-.5,-.5,-1.1,-.8,-1.8,-1Z" class="g0"/>
<path d="M79.6,70.5c.4,0,.8,-.4,.8,-.8c-.2,-1.5,-.8,-3.1,-2,-4.2c-1.2,-1.2,-2.7,-1.8,-4.2,-2c-.4,0,-.8,.4,-.8,.8c0,.4,.3,.7,.7,.8c1.2,0,2.3,.6,3.2,1.5c1,.9,1.5,2.1,1.6,3.2c0,.4,.3,.7,.7,.7Z" class="g0"/>
<path d="M80.5,63.4C78.7,61.6,76.3,60.7,73.9,60.6c-.4,0,-.8,.4,-.7,.8c0,.4,.3,.7,.7,.7c2,.1,4,.9,5.5,2.4C80.9,66,81.7,68,81.8,70c0,.4,.3,.7,.7,.7c.4,.1,.8,-.3,.8,-.8c-.1,-2.3,-1,-4.7,-2.8,-6.5Z" class="g0"/>
<path d="M695.7,69.6c0,10.2,-8.2,18.5,-18.4,18.5c-10.1,0,-18.4,-8.3,-18.4,-18.5c0,-10.1,8.3,-18.4,18.4,-18.4c10.2,0,18.4,8.3,18.4,18.4Z" class="g1"/>
<path d="M677.3,69.6c-2,0,-3.6,-1.6,-3.6,-3.6c0,-2,1.6,-3.6,3.6,-3.6c2,0,3.6,1.6,3.6,3.6c0,2,-1.6,3.6,-3.6,3.6m0,-10.5c-3.8,0,-6.9,3.1,-6.9,7c0,1.5,1,4,3,7.7c1.4,2.6,2.8,4.7,2.9,4.8l1,1.6l1.1,-1.6c0,-.1,1.4,-2.2,2.9,-4.8c2,-3.7,3,-6.2,3,-7.7c0,-3.9,-3.1,-7,-7,-7Z" class="g0"/>
<path d="M41.2,972.3c0,-.6,.4,-1,.9,-1c.5,0,1,.4,1,1c0,.2,-.2,.4,-.3,.6c-.2,.2,-.4,.3,-.7,.3c-.5,0,-.9,-.4,-.9,-.9Z" class="g2"/>
<path d="M31.7,972.3c0,-.6,.4,-1,.9,-1c.5,0,.9,.4,.9,1c0,.2,-.1,.4,-.3,.6c-.1,.2,-.4,.3,-.6,.3c-.5,0,-.9,-.4,-.9,-.9Z" class="g2"/>
<path d="M22.1,972.3c0,-.6,.4,-1,1,-1c.5,0,.9,.4,.9,1c0,.2,-.1,.4,-.3,.6c-.2,.2,-.4,.3,-.6,.3c-.6,0,-1,-.4,-1,-.9Z" class="g2"/>
<path d="M71.7,972.3c0,.2,-.1,.4,-.3,.6c-.2,.2,-.4,.3,-.7,.3c-.5,0,-.9,-.4,-.9,-.9c0,-.6,.4,-1,.9,-1c.5,0,1,.4,1,1Z" class="g2"/>
<path d="M62.1,972.3c0,.2,-.1,.4,-.3,.6c-.1,.2,-.3,.3,-.6,.3c-.5,0,-.9,-.4,-.9,-.9c0,-.6,.4,-1,.9,-1c.5,0,.9,.4,.9,1Z" class="g2"/>
<path d="M52.6,972.3c0,.2,-.1,.4,-.3,.6c-.2,.2,-.4,.3,-.6,.3c-.6,0,-1,-.4,-1,-.9c0,-.6,.4,-1,1,-1c.5,0,.9,.4,.9,1Z" class="g2"/>
<path d="M14.4,972.3c0,.2,-.1,.4,-.2,.6c-.2,.2,-.4,.3,-.7,.3c-.5,0,-.9,-.4,-.9,-.9c0,-.6,.4,-1,.9,-1c.5,0,.9,.4,.9,1Z" class="g2"/>
<path d="M4.9,972.3c0,.2,-.1,.4,-.3,.6c-.1,.2,-.4,.3,-.6,.3c-.5,0,-.9,-.4,-.9,-.9c0,-.6,.4,-1,.9,-1c.5,0,.9,.4,.9,1Z" class="g2"/>
<path d="M52.6,980.8c0,.3,-.1,.5,-.3,.7c-.2,.1,-.4,.3,-.6,.3c-.6,-.1,-1,-.5,-1,-1c0,-.5,.4,-.9,1,-.9c.5,0,.9,.4,.9,.9Z" class="g2"/>
<path d="M43.1,980.8c0,.3,-.2,.5,-.3,.7c-.2,.1,-.4,.3,-.7,.3c-.5,0,-.9,-.5,-.9,-1c0,-.5,.4,-.9,.9,-.9c.5,0,1,.4,1,.9Z" class="g2"/>
<path d="M71.7,980.8c0,.3,-.1,.5,-.3,.7c-.2,.1,-.4,.2,-.7,.3c-.5,0,-.9,-.5,-.9,-1c0,-.5,.4,-.9,.9,-.9c.5,0,1,.4,1,.9Z" class="g2"/>
<path d="M31.7,980.8c0,-.5,.4,-.9,.9,-.9c.5,0,.9,.4,.9,.9c0,.3,-.1,.5,-.3,.7c-.1,.1,-.4,.3,-.6,.3c-.5,-.1,-.9,-.5,-.9,-1Z" class="g2"/>
<path d="M12.6,980.8c0,-.5,.4,-.9,.9,-.9c.5,0,.9,.4,.9,.9c0,.3,-.1,.5,-.2,.7c-.2,.1,-.4,.2,-.7,.3c-.5,0,-.9,-.5,-.9,-1Z" class="g2"/>
<path d="M61.2,979.9c.5,0,.9,.4,.9,.9c0,.3,-.1,.5,-.2,.7c-.2,.1,-.4,.3,-.7,.3c-.5,0,-.9,-.5,-.9,-1c0,-.5,.4,-.9,.9,-.9Z" class="g2"/>
<path d="M4,979.9c.5,0,.9,.4,.9,.9c0,.3,-.1,.5,-.3,.7c-.1,.1,-.4,.3,-.6,.3c-.5,0,-.9,-.5,-.9,-1c0,-.5,.4,-.9,.9,-.9Z" class="g2"/>
<path d="M24,980.8c0,.3,-.1,.5,-.3,.7c-.2,.1,-.4,.3,-.6,.2c-.6,.1,-1,-.4,-1,-.9c0,-.5,.4,-.9,1,-.9c.5,0,.9,.4,.9,.9Z" class="g2"/>
<path d="M60.3,989.4c0,-.5,.4,-.9,.9,-.9c.5,0,.9,.4,.9,.9c0,.3,-.1,.5,-.3,.7c-.1,.1,-.4,.2,-.6,.2c-.5,0,-.9,-.4,-.9,-.9Z" class="g2"/>
<path d="M50.7,989.4c0,-.5,.4,-.9,1,-.9c.5,0,.9,.4,.9,.9c0,.2,-.1,.5,-.3,.7c-.2,.1,-.4,.2,-.6,.2c-.6,0,-1,-.4,-1,-.9Z" class="g2"/>
<path d="M14.4,989.4c0,.3,-.1,.5,-.2,.7c-.2,.1,-.4,.2,-.7,.2c-.5,0,-.9,-.4,-.9,-.9c0,-.5,.4,-.9,.9,-.9c.5,0,.9,.4,.9,.9Z" class="g2"/>
<path d="M41.2,989.4c0,-.5,.4,-.9,.9,-.9c.5,0,1,.4,1,.9c0,.3,-.2,.5,-.3,.7c-.2,.1,-.4,.2,-.7,.2c-.5,0,-.9,-.4,-.9,-.9Z" class="g2"/>
<path d="M33.5,989.4c0,.3,-.1,.5,-.3,.7c-.1,.1,-.4,.2,-.6,.2c-.5,0,-.9,-.4,-.9,-.9c0,-.5,.4,-.9,.9,-.9c.5,0,.9,.4,.9,.9Z" class="g2"/>
<path d="M22.1,989.4c0,-.5,.4,-.9,1,-.9c.5,0,.9,.4,.9,.9c0,.2,-.1,.5,-.3,.7c-.2,.1,-.4,.2,-.6,.2c-.6,0,-1,-.4,-1,-.9Z" class="g2"/>
<path d="M69.8,989.4c0,-.5,.4,-.9,.9,-.9c.5,0,1,.4,1,.9c0,.2,-.1,.5,-.3,.7c-.2,.1,-.4,.2,-.7,.2c-.5,0,-.9,-.4,-.9,-.9Z" class="g2"/>
<path d="M3.1,989.4c0,-.5,.4,-.9,.9,-.9c.5,0,.9,.4,.9,.9c0,.2,-.1,.5,-.3,.7c-.1,.1,-.4,.2,-.6,.2c-.5,0,-.9,-.4,-.9,-.9Z" class="g2"/>
<path d="M60.3,963.7c0,-.5,.4,-.9,.9,-.9c.5,0,.9,.4,.9,.9c0,.2,-.1,.5,-.2,.6c-.2,.2,-.4,.3,-.7,.3c-.5,0,-.9,-.4,-.9,-.9Z" class="g2"/>
<path d="M50.7,963.7c0,-.5,.4,-.9,1,-.9c.5,0,.9,.4,.9,.9c0,.2,-.1,.5,-.3,.6c-.2,.2,-.4,.3,-.6,.3c-.6,0,-1,-.4,-1,-.9Z" class="g2"/>
<path d="M69.8,963.7c0,-.5,.4,-.9,.9,-.9c.5,0,1,.4,1,.9c0,.2,-.1,.5,-.3,.6c-.2,.2,-.4,.3,-.7,.3c-.5,0,-.9,-.4,-.9,-.9Z" class="g2"/>
<path d="M14.4,963.7c0,.2,-.1,.5,-.2,.6c-.2,.2,-.4,.3,-.7,.3c-.5,0,-.9,-.4,-.9,-.9c0,-.5,.4,-.9,.9,-.9c.5,0,.9,.4,.9,.9Z" class="g2"/>
<path d="M41.2,963.7c0,-.5,.4,-.9,.9,-.9c.5,0,1,.4,1,.9c0,.2,-.2,.5,-.3,.6c-.2,.2,-.4,.3,-.7,.3c-.5,0,-.9,-.4,-.9,-.9Z" class="g2"/>
<path d="M22.1,963.7c0,-.5,.4,-.9,1,-.9c.5,0,.9,.4,.9,.9c0,.2,-.1,.5,-.3,.6c-.2,.2,-.4,.3,-.6,.3c-.6,0,-1,-.4,-1,-.9Z" class="g2"/>
<path d="M3.1,963.7c0,-.5,.4,-.9,.9,-.9c.5,0,.9,.4,.9,.9c0,.2,-.1,.5,-.3,.6c-.1,.2,-.4,.3,-.6,.3c-.5,0,-.9,-.4,-.9,-.9Z" class="g2"/>
<path d="M32.6,962.8c.5,0,.9,.4,.9,.9c0,.2,-.1,.5,-.3,.6c-.1,.2,-.4,.3,-.6,.3c-.5,0,-.9,-.4,-.9,-.9c0,-.5,.4,-.9,.9,-.9Z" class="g2"/>
<path d="M12.6,955.1c0,-.5,.4,-.9,.9,-.9c.5,0,.9,.4,.9,.9c0,.3,-.1,.5,-.2,.7c-.2,.1,-.4,.2,-.7,.2c-.5,0,-.9,-.4,-.9,-.9Z" class="g2"/>
<path d="M3.1,955.1c0,-.5,.4,-.9,.9,-.9c.5,0,.9,.4,.9,.9c0,.3,-.1,.5,-.3,.7c-.1,.1,-.4,.2,-.6,.2c-.5,0,-.9,-.4,-.9,-.9Z" class="g2"/>
<path d="M43.1,955.1c0,.3,-.2,.5,-.3,.7c-.2,.1,-.4,.2,-.7,.2c-.5,0,-.9,-.4,-.9,-.9c0,-.5,.4,-.9,.9,-.9c.5,0,1,.4,1,.9Z" class="g2"/>
<path d="M60.3,955.1c0,-.5,.4,-.9,.9,-.9c.5,0,.9,.4,.9,.9c0,.3,-.1,.5,-.2,.7c-.2,.1,-.5,.2,-.7,.2c-.5,0,-.9,-.4,-.9,-.9Z" class="g2"/>
<path d="M31.7,955.1c0,-.5,.4,-.9,.9,-.9c.5,0,.9,.4,.9,.9c0,.3,-.1,.5,-.3,.7c-.1,.1,-.4,.2,-.6,.2c-.5,0,-.9,-.4,-.9,-.9Z" class="g2"/>
<path d="M24,955.1c0,.3,-.1,.5,-.3,.7c-.2,.1,-.4,.2,-.6,.2c-.6,0,-1,-.4,-1,-.9c0,-.5,.4,-.9,1,-.9c.5,0,.9,.4,.9,.9Z" class="g2"/>
<path d="M52.6,955.1c0,.3,-.1,.5,-.3,.7c-.2,.1,-.4,.2,-.6,.2c-.6,0,-1,-.4,-1,-.9c0,-.5,.4,-.9,1,-.9c.5,0,.9,.4,.9,.9Z" class="g2"/>
<path d="M71.7,955.1c0,.3,-.1,.5,-.3,.7c-.2,.1,-.4,.2,-.7,.2c-.5,0,-.9,-.4,-.9,-.9c0,-.5,.4,-.9,.9,-.9c.5,0,1,.4,1,.9Z" class="g2"/>
<path d="M3.1,946.5c0,-.5,.4,-.9,.9,-.9c.5,0,.9,.4,.9,.9c0,.3,-.1,.5,-.3,.7c-.1,.2,-.4,.3,-.6,.3c-.5,0,-.9,-.5,-.9,-1Z" class="g2"/>
<path d="M13.5,945.6c.5,0,.9,.4,.9,.9c0,.3,-.1,.5,-.2,.7c-.2,.2,-.4,.3,-.7,.3c-.5,0,-.9,-.5,-.9,-1c0,-.5,.4,-.9,.9,-.9Z" class="g2"/>
<path d="M42.1,945.6c.5,0,1,.4,1,.9c0,.3,-.2,.5,-.3,.7c-.2,.2,-.4,.3,-.7,.3c-.5,0,-.9,-.5,-.9,-1c0,-.5,.4,-.9,.9,-.9Z" class="g2"/>
<path d="M31.7,946.5c0,-.5,.4,-.9,.9,-.9c.5,0,.9,.4,.9,.9c0,.3,-.1,.5,-.3,.7c-.1,.2,-.4,.3,-.6,.3c-.5,0,-.9,-.5,-.9,-1Z" class="g2"/>
<path d="M52.6,946.5c0,.3,-.1,.5,-.3,.7c-.2,.2,-.4,.3,-.6,.3c-.6,0,-1,-.5,-1,-1c0,-.5,.4,-.9,1,-.9c.5,0,.9,.4,.9,.9Z" class="g2"/>
<path d="M69.8,946.5c0,-.5,.4,-.9,.9,-.9c.5,0,1,.4,1,.9c0,.3,-.1,.5,-.3,.7c-.2,.2,-.4,.3,-.7,.3c-.5,0,-.9,-.5,-.9,-1Z" class="g2"/>
<path d="M22.1,946.5c0,-.5,.4,-.9,1,-.9c.5,0,.9,.4,.9,.9c0,.3,-.1,.5,-.3,.7c-.2,.2,-.4,.3,-.6,.3c-.6,0,-1,-.5,-1,-1Z" class="g2"/>
<path d="M61.2,945.6c.5,0,.9,.4,.9,.9c0,.3,-.1,.5,-.3,.7c-.1,.2,-.4,.3,-.6,.3c-.5,0,-.9,-.5,-.9,-1c0,-.5,.4,-.9,.9,-.9Z" class="g2"/>
<path d="M4.6,938.6c-.1,.2,-.4,.3,-.6,.3c-.5,0,-.9,-.4,-.9,-.9c0,-.6,.4,-1,.9,-1c.5,0,.9,.4,.9,1c0,.2,-.1,.4,-.3,.6Z" class="g2"/>
<path d="M14.4,938c0,.2,-.1,.4,-.2,.6c-.2,.2,-.4,.3,-.7,.3c-.5,0,-.9,-.4,-.9,-.9c0,-.6,.4,-1,.9,-1c.5,0,.9,.4,.9,1Z" class="g2"/>
<path d="M50.7,938c0,-.6,.4,-1,1,-1c.5,0,.9,.4,.9,1c0,.2,-.1,.4,-.3,.6c-.2,.2,-.4,.3,-.6,.3c-.6,0,-1,-.4,-1,-.9Z" class="g2"/>
<path d="M41.2,938c0,-.6,.4,-1,.9,-1c.5,0,1,.4,1,1c0,.2,-.2,.4,-.3,.6c-.2,.2,-.4,.3,-.7,.3c-.5,0,-.9,-.4,-.9,-.9Z" class="g2"/>
<path d="M31.7,938c0,-.6,.4,-1,.9,-1c.5,0,.9,.4,.9,1c0,.2,-.1,.4,-.3,.6c-.1,.2,-.4,.3,-.6,.3c-.5,0,-.9,-.4,-.9,-.9Z" class="g2"/>
<path d="M22.1,938c0,-.6,.4,-1,1,-1c.5,0,.9,.4,.9,1c0,.2,-.1,.4,-.3,.6c-.2,.2,-.4,.3,-.6,.3c-.6,0,-1,-.4,-1,-.9Z" class="g2"/>
<path d="M60.3,938c0,-.6,.4,-1,.9,-1c.5,0,.9,.4,.9,1c0,.2,-.1,.4,-.2,.6c-.2,.2,-.4,.3,-.7,.3c-.5,0,-.9,-.4,-.9,-.9Z" class="g2"/>
<path d="M69.8,938c0,-.6,.4,-1,.9,-1c.5,0,1,.4,1,1c0,.2,-.1,.4,-.3,.6c-.2,.2,-.4,.3,-.7,.3c-.5,0,-.9,-.4,-.9,-.9Z" class="g2"/>
<path d="M24,929.4c0,.2,-.1,.5,-.3,.6c-.2,.2,-.4,.3,-.6,.3c-.6,0,-1,-.4,-1,-.9c0,-.5,.4,-.9,1,-.9c.5,0,.9,.4,.9,.9Z" class="g2"/>
<path d="M41.2,929.4c0,-.5,.4,-.9,.9,-.9c.5,0,1,.4,1,.9c0,.2,-.2,.5,-.3,.6c-.2,.2,-.4,.3,-.7,.3c-.5,0,-.9,-.4,-.9,-.9Z" class="g2"/>
<path d="M31.7,929.4c0,-.5,.4,-.9,.9,-.9c.5,0,.9,.4,.9,.9c0,.2,-.1,.5,-.3,.6c-.1,.2,-.4,.3,-.6,.3c-.5,0,-.9,-.4,-.9,-.9Z" class="g2"/>
<path d="M4.9,929.4c0,.2,-.1,.5,-.3,.6c-.1,.2,-.4,.3,-.6,.3c-.5,0,-.9,-.4,-.9,-.9c0,-.5,.4,-.9,.9,-.9c.5,0,.9,.4,.9,.9Z" class="g2"/>
<path d="M14.4,929.4c0,.2,-.1,.5,-.2,.6c-.2,.2,-.4,.3,-.7,.3c-.5,0,-.9,-.4,-.9,-.9c0,-.5,.4,-.9,.9,-.9c.5,0,.9,.4,.9,.9Z" class="g2"/>
<path d="M50.7,929.4c0,-.5,.4,-.9,1,-.9c.5,0,.9,.4,.9,.9c0,.2,-.1,.5,-.3,.6c-.2,.2,-.4,.3,-.6,.3c-.6,0,-1,-.4,-1,-.9Z" class="g2"/>
<path d="M60.3,929.4c0,-.5,.4,-.9,.9,-.9c.5,0,.9,.4,.9,.9c0,.2,-.1,.5,-.3,.6c-.1,.2,-.4,.3,-.6,.3c-.5,0,-.9,-.4,-.9,-.9Z" class="g2"/>
<path d="M71.7,929.4c0,.2,-.1,.5,-.3,.6c-.2,.2,-.4,.3,-.7,.3c-.5,0,-.9,-.4,-.9,-.9c0,-.5,.4,-.9,.9,-.9c.5,0,1,.4,1,.9Z" class="g2"/>
<path d="M33.5,920.8c0,.3,-.1,.5,-.3,.7c-.1,.1,-.4,.2,-.6,.2c-.5,0,-.9,-.4,-.9,-.9c0,-.5,.4,-.9,.9,-.9c.5,0,.9,.4,.9,.9Z" class="g2"/>
<path d="M14.4,920.8c0,.3,-.1,.5,-.2,.7c-.2,.1,-.4,.2,-.7,.2c-.5,0,-.9,-.4,-.9,-.9c0,-.5,.4,-.9,.9,-.9c.5,0,.9,.4,.9,.9Z" class="g2"/>
<path d="M3.1,920.8c0,-.5,.4,-.9,.9,-.9c.5,0,.9,.4,.9,.9c0,.3,-.1,.5,-.3,.7c-.1,.1,-.4,.2,-.6,.2c-.5,0,-.9,-.4,-.9,-.9Z" class="g2"/>
<path d="M50.7,920.8c0,-.5,.4,-.9,1,-.9c.5,0,.9,.4,.9,.9c0,.3,-.1,.5,-.3,.7c-.2,.1,-.4,.2,-.6,.2c-.6,0,-1,-.4,-1,-.9Z" class="g2"/>
<path d="M22.1,920.8c0,-.5,.4,-.9,1,-.9c.5,0,.9,.4,.9,.9c0,.3,-.1,.5,-.3,.7c-.2,.1,-.4,.2,-.6,.2c-.6,0,-1,-.4,-1,-.9Z" class="g2"/>
<path d="M69.8,920.8c0,-.5,.4,-.9,.9,-.9c.5,0,1,.4,1,.9c0,.3,-.1,.5,-.3,.7c-.2,.1,-.4,.2,-.7,.2c-.5,0,-.9,-.4,-.9,-.9Z" class="g2"/>
<path d="M41.2,920.8c0,-.5,.4,-.9,.9,-.9c.5,0,1,.4,1,.9c0,.3,-.2,.5,-.3,.7c-.2,.1,-.4,.2,-.7,.2c-.5,0,-.9,-.4,-.9,-.9Z" class="g2"/>
<path d="M62.1,920.8c0,.3,-.1,.5,-.2,.7c-.2,.1,-.4,.2,-.7,.2c-.5,0,-.9,-.4,-.9,-.9c0,-.5,.4,-.9,.9,-.9c.5,0,.9,.4,.9,.9Z" class="g2"/>
<path d="M12.6,912.2c0,-.5,.4,-.9,.9,-.9c.5,0,.9,.4,.9,.9c0,.3,-.1,.5,-.2,.7c-.2,.2,-.4,.3,-.7,.3c-.5,0,-.9,-.4,-.9,-1Z" class="g2"/>
<path d="M23.1,911.3c.5,0,.9,.4,.9,.9c0,.3,-.1,.5,-.3,.7c-.2,.2,-.4,.3,-.6,.3c-.6,0,-1,-.4,-1,-1c0,-.5,.4,-.9,1,-.9Z" class="g2"/>
<path d="M4.9,912.2c0,.3,-.1,.5,-.3,.7c-.1,.2,-.4,.3,-.6,.3c-.5,0,-.9,-.4,-.9,-1c0,-.5,.4,-.9,.9,-.9c.5,0,.9,.4,.9,.9Z" class="g2"/>
<path d="M71.7,912.2c0,.3,-.1,.5,-.3,.7c-.2,.2,-.4,.3,-.7,.3c-.5,0,-.9,-.4,-.9,-1c0,-.5,.4,-.9,.9,-.9c.5,0,1,.4,1,.9Z" class="g2"/>
<path d="M51.7,911.3c.5,0,.9,.4,.9,.9c0,.3,-.1,.5,-.3,.7c-.2,.2,-.4,.3,-.6,.3c-.6,0,-1,-.4,-1,-1c0,-.5,.4,-.9,1,-.9Z" class="g2"/>
<path d="M31.7,912.2c0,-.5,.4,-.9,.9,-.9c.5,0,.9,.4,.9,.9c0,.3,-.1,.5,-.3,.7c-.1,.2,-.4,.3,-.6,.3c-.5,0,-.9,-.4,-.9,-1Z" class="g2"/>
<path d="M62.1,912.2c0,.3,-.1,.5,-.3,.7c-.1,.2,-.3,.3,-.6,.3c-.5,0,-.9,-.4,-.9,-1c0,-.5,.4,-.9,.9,-.9c.5,0,.9,.4,.9,.9Z" class="g2"/>
<path d="M41.2,912.2c0,-.5,.4,-.9,.9,-.9c.5,0,1,.4,1,.9c0,.3,-.2,.5,-.3,.7c-.2,.2,-.4,.3,-.7,.3c-.5,0,-.9,-.4,-.9,-1Z" class="g2"/>
<path d="M4.9,903.8c0,.3,-.1,.5,-.3,.7c-.1,.2,-.4,.3,-.6,.3c-.5,0,-.9,-.4,-.9,-1c0,-.5,.4,-.9,.9,-.9c.5,0,.9,.4,.9,.9Z" class="g2"/>
<path d="M31.7,903.8c0,-.5,.4,-.9,.9,-.9c.5,0,.9,.4,.9,.9c0,.3,-.1,.5,-.3,.7c-.1,.2,-.4,.3,-.6,.3c-.5,0,-.9,-.4,-.9,-1Z" class="g2"/>
<path d="M14.4,903.8c0,.3,-.1,.5,-.2,.7c-.2,.2,-.4,.3,-.7,.3c-.5,0,-.9,-.4,-.9,-1c0,-.5,.4,-.9,.9,-.9c.5,0,.9,.4,.9,.9Z" class="g2"/>
<path d="M24,903.8c0,.3,-.1,.5,-.3,.7c-.2,.2,-.4,.3,-.6,.3c-.6,0,-1,-.4,-1,-1c0,-.5,.4,-.9,1,-.9c.5,0,.9,.4,.9,.9Z" class="g2"/>
<path d="M50.7,903.8c0,-.5,.4,-.9,1,-.9c.5,0,.9,.4,.9,.9c0,.3,-.1,.5,-.3,.7c-.2,.2,-.4,.3,-.6,.3c-.6,0,-1,-.4,-1,-1Z" class="g2"/>
<path d="M60.3,903.8c0,-.5,.4,-.9,.9,-.9c.5,0,.9,.4,.9,.9c0,.3,-.1,.5,-.3,.7c-.1,.2,-.4,.3,-.6,.3c-.5,0,-.9,-.4,-.9,-1Z" class="g2"/>
<path d="M71.7,903.8c0,.3,-.1,.5,-.3,.7c-.2,.2,-.4,.3,-.7,.3c-.5,0,-.9,-.4,-.9,-1c0,-.5,.4,-.9,.9,-.9c.5,0,1,.4,1,.9Z" class="g2"/>
<path d="M41.2,903.8c0,-.5,.4,-.9,.9,-.9c.5,0,1,.4,1,.9c0,.3,-.2,.5,-.3,.7c-.2,.2,-.4,.3,-.7,.3c-.5,0,-.9,-.4,-.9,-1Z" class="g2"/>
<path d="M873.4,776.3c0,-.5,.4,-.9,.9,-.9c.5,0,.9,.4,.9,.9c0,.3,-.1,.5,-.2,.7c-.2,.1,-.4,.2,-.7,.2c-.5,0,-.9,-.4,-.9,-.9Z" class="g2"/>
<path d="M863.9,776.3c0,-.5,.4,-.9,.9,-.9c.5,0,.9,.4,.9,.9c0,.3,-.1,.5,-.3,.7c-.1,.1,-.4,.2,-.6,.2c-.5,0,-.9,-.4,-.9,-.9Z" class="g2"/>
<path d="M854.3,776.3c0,-.5,.4,-.9,.9,-.9c.6,0,1,.4,1,.9c0,.3,-.1,.5,-.3,.7c-.2,.1,-.4,.2,-.7,.2c-.5,0,-.9,-.4,-.9,-.9Z" class="g2"/>
<path d="M903.8,776.3c.1,.3,-.1,.5,-.2,.7c-.2,.1,-.4,.2,-.7,.2c-.5,0,-.9,-.4,-.9,-.9c0,-.5,.4,-.9,.9,-.9c.5,0,1,.4,.9,.9Z" class="g2"/>
<path d="M894.3,776.3c0,.3,-.1,.5,-.3,.7c-.1,.1,-.4,.2,-.6,.2c-.5,0,-.9,-.4,-.9,-.9c0,-.5,.4,-.9,.9,-.9c.5,0,.9,.4,.9,.9Z" class="g2"/>
<path d="M884.8,776.3c0,.3,-.1,.5,-.3,.7c-.2,.1,-.4,.2,-.6,.2c-.6,0,-1,-.4,-1,-.9c0,-.5,.4,-.9,1,-.9c.5,0,.9,.4,.9,.9Z" class="g2"/>
<path d="M846.6,776.3c0,.3,-.1,.5,-.2,.7c-.2,.1,-.4,.2,-.7,.2c-.5,0,-.9,-.4,-.9,-.9c0,-.5,.4,-.9,.9,-.9c.5,0,.9,.4,.9,.9Z" class="g2"/>
<path d="M837.1,776.3c0,.3,-.1,.5,-.3,.7c-.1,.1,-.4,.2,-.6,.2c-.5,0,-1,-.4,-1,-.9c0,-.5,.5,-.9,1,-.9c.5,0,.9,.4,.9,.9Z" class="g2"/>
<path d="M884.8,784.9c0,.2,-.1,.5,-.3,.6c-.2,.2,-.4,.3,-.6,.3c-.6,0,-1,-.4,-1,-.9c0,-.5,.4,-1,1,-1c.5,0,.9,.5,.9,1Z" class="g2"/>
<path d="M875.2,784.9c0,.2,-.1,.5,-.2,.6c-.2,.2,-.4,.3,-.7,.3c-.5,0,-.9,-.4,-.9,-.9c0,-.5,.4,-1,.9,-1c.5,0,.9,.5,.9,1Z" class="g2"/>
<path d="M903.9,784.9c0,.2,-.2,.5,-.3,.6c-.2,.2,-.4,.3,-.7,.3c-.5,0,-.9,-.4,-.9,-.9c0,-.5,.4,-1,.9,-1c.5,0,.9,.5,1,1Z" class="g2"/>
<path d="M863.9,784.9c0,-.5,.4,-1,.9,-1c.5,0,.9,.5,.9,1c0,.2,-.1,.5,-.3,.6c-.1,.2,-.4,.3,-.6,.3c-.5,0,-.9,-.4,-.9,-.9Z" class="g2"/>
<path d="M844.8,784.9c0,-.5,.4,-1,.9,-1c.5,0,.9,.5,.9,1c0,.2,-.1,.5,-.2,.6c-.2,.2,-.4,.3,-.7,.3c-.5,0,-.9,-.4,-.9,-.9Z" class="g2"/>
<path d="M893.4,783.9c.5,0,.9,.5,.9,1c0,.2,-.1,.5,-.3,.6c-.1,.2,-.4,.3,-.6,.3c-.5,0,-.9,-.4,-.9,-.9c0,-.5,.4,-1,.9,-1Z" class="g2"/>
<path d="M836.2,783.9c.5,0,.9,.5,.9,1c0,.2,-.1,.5,-.3,.6c-.1,.2,-.4,.3,-.6,.3c-.5,0,-.9,-.4,-.9,-.9c-.1,-.5,.4,-1,.9,-1Z" class="g2"/>
<path d="M856.2,784.9c0,.2,-.1,.5,-.3,.6c-.2,.2,-.4,.3,-.7,.3c-.5,0,-.9,-.4,-.9,-.9c0,-.5,.4,-1,.9,-1c.6,0,1,.5,1,1Z" class="g2"/>
<path d="M892.5,793.4c0,-.5,.4,-.9,.9,-.9c.5,0,.9,.4,.9,.9c0,.3,-.1,.5,-.3,.7c-.1,.2,-.4,.3,-.6,.3c-.5,0,-.9,-.4,-.9,-1Z" class="g2"/>
<path d="M882.9,793.4c0,-.5,.4,-.9,1,-.9c.5,0,.9,.4,.9,.9c0,.3,-.1,.5,-.3,.7c-.2,.2,-.4,.3,-.6,.3c-.6,0,-1,-.4,-1,-1Z" class="g2"/>
<path d="M846.6,793.4c0,.3,-.1,.5,-.2,.7c-.2,.2,-.4,.3,-.7,.3c-.5,0,-.9,-.4,-.9,-1c0,-.5,.4,-.9,.9,-.9c.5,0,.9,.4,.9,.9Z" class="g2"/>
<path d="M873.4,793.4c0,-.5,.4,-.9,.9,-.9c.5,0,.9,.4,.9,.9c0,.3,-.1,.5,-.2,.7c-.2,.2,-.4,.3,-.7,.3c-.5,0,-.9,-.4,-.9,-1Z" class="g2"/>
<path d="M865.7,793.4c0,.3,-.1,.5,-.3,.7c-.1,.2,-.4,.3,-.6,.3c-.5,0,-.9,-.4,-.9,-1c0,-.5,.4,-.9,.9,-.9c.5,0,.9,.4,.9,.9Z" class="g2"/>
<path d="M854.3,793.4c0,-.5,.4,-.9,.9,-.9c.6,0,1,.4,1,.9c0,.3,-.1,.5,-.3,.7c-.2,.2,-.4,.3,-.7,.3c-.5,0,-.9,-.4,-.9,-1Z" class="g2"/>
<path d="M902,793.4c0,-.5,.4,-.9,.9,-.9c.5,0,1,.4,1,.9c0,.3,-.2,.5,-.3,.7c-.2,.2,-.4,.3,-.7,.3c-.5,0,-.9,-.4,-.9,-1Z" class="g2"/>
<path d="M835.2,793.4c0,-.5,.5,-.9,1,-.9c.5,0,.9,.4,.9,.9c0,.3,-.1,.5,-.3,.7c-.1,.2,-.4,.3,-.6,.3c-.5,0,-1,-.4,-1,-1Z" class="g2"/>
<path d="M892.5,767.7c0,-.5,.4,-.9,.9,-.9c.5,0,.9,.4,.9,.9c0,.3,-.1,.5,-.3,.7c-.1,.2,-.4,.3,-.6,.3c-.5,0,-.9,-.5,-.9,-1Z" class="g2"/>
<path d="M882.9,767.7c0,-.5,.4,-.9,1,-.9c.5,0,.9,.4,.9,.9c0,.3,-.1,.5,-.3,.7c-.2,.2,-.4,.3,-.6,.3c-.6,0,-1,-.5,-1,-1Z" class="g2"/>
<path d="M902,767.7c0,-.5,.4,-.9,.9,-.9c.5,0,1,.4,1,.9c0,.3,-.2,.5,-.3,.7c-.2,.2,-.4,.3,-.7,.3c-.5,0,-.9,-.5,-.9,-1Z" class="g2"/>
<path d="M846.6,767.7c0,.3,-.1,.5,-.2,.7c-.2,.2,-.4,.3,-.7,.3c-.5,0,-.9,-.5,-.9,-1c0,-.5,.4,-.9,.9,-.9c.5,0,.9,.4,.9,.9Z" class="g2"/>
<path d="M873.4,767.7c0,-.5,.4,-.9,.9,-.9c.5,0,.9,.4,.9,.9c0,.3,-.1,.5,-.2,.7c-.2,.2,-.4,.3,-.7,.3c-.5,0,-.9,-.5,-.9,-1Z" class="g2"/>
<path d="M854.3,767.7c0,-.5,.4,-.9,.9,-.9c.6,0,1,.4,1,.9c0,.3,-.1,.5,-.3,.7c-.2,.2,-.4,.3,-.7,.3c-.5,0,-.9,-.5,-.9,-1Z" class="g2"/>
<path d="M835.2,767.7c0,-.5,.5,-.9,1,-.9c.5,0,.9,.4,.9,.9c0,.3,-.1,.5,-.3,.7c-.1,.2,-.4,.3,-.6,.3c-.5,0,-1,-.5,-1,-1Z" class="g2"/>
<path d="M864.8,766.8c.5,0,.9,.4,.9,.9c0,.3,-.1,.5,-.3,.7c-.1,.2,-.4,.3,-.6,.3c-.5,0,-.9,-.5,-.9,-1c0,-.5,.4,-.9,.9,-.9Z" class="g2"/>
<path d="M844.8,759.2c0,-.6,.4,-1,.9,-1c.5,0,.9,.4,.9,1c0,.2,-.1,.4,-.2,.6c-.2,.2,-.4,.3,-.7,.3c-.5,0,-.9,-.4,-.9,-.9Z" class="g2"/>
<path d="M835.2,759.2c0,-.6,.5,-1,1,-1c.5,0,.9,.4,.9,1c0,.2,-.1,.4,-.3,.6c-.1,.2,-.4,.3,-.6,.3c-.5,0,-1,-.4,-1,-.9Z" class="g2"/>
<path d="M875.2,759.2c0,.2,-.1,.4,-.2,.6c-.2,.2,-.4,.3,-.7,.3c-.5,0,-.9,-.4,-.9,-.9c0,-.6,.4,-1,.9,-1c.5,0,.9,.4,.9,1Z" class="g2"/>
<path d="M892.5,759.2c0,-.6,.4,-1,.9,-1c.5,0,.9,.4,.9,1c0,.2,-.1,.4,-.3,.6c-.1,.2,-.4,.3,-.6,.3c-.5,0,-.9,-.4,-.9,-.9Z" class="g2"/>
<path d="M863.9,759.2c0,-.6,.4,-1,.9,-1c.5,0,.9,.4,.9,1c0,.2,-.1,.4,-.3,.6c-.1,.2,-.4,.3,-.6,.3c-.5,0,-.9,-.4,-.9,-.9Z" class="g2"/>
<path d="M856.2,759.2c0,.2,-.1,.4,-.3,.6c-.2,.2,-.4,.3,-.7,.3c-.5,0,-.9,-.4,-.9,-.9c0,-.6,.4,-1,.9,-1c.6,0,1,.4,1,1Z" class="g2"/>
<path d="M884.8,759.2c0,.2,-.1,.4,-.3,.6c-.2,.2,-.4,.3,-.6,.3c-.6,0,-1,-.4,-1,-.9c0,-.6,.4,-1,1,-1c.5,0,.9,.4,.9,1Z" class="g2"/>
<path d="M903.9,759.2c0,.2,-.2,.4,-.3,.6c-.2,.2,-.4,.3,-.7,.3c-.5,0,-.9,-.4,-.9,-.9c0,-.6,.4,-1,.9,-1c.5,0,1,.4,1,1Z" class="g2"/>
<path d="M835.2,750.6c0,-.5,.5,-.9,1,-.9c.5,0,.9,.4,.9,.9c0,.2,-.1,.5,-.3,.6c-.1,.2,-.4,.3,-.6,.3c-.5,0,-1,-.4,-1,-.9Z" class="g2"/>
<path d="M845.7,749.7c.5,0,.9,.4,.9,.9c0,.2,-.1,.5,-.2,.6c-.2,.2,-.4,.3,-.7,.3c-.5,0,-.9,-.4,-.9,-.9c0,-.5,.4,-.9,.9,-.9Z" class="g2"/>
<path d="M874.3,749.7c.5,0,.9,.4,.9,.9c0,.2,-.1,.5,-.2,.6c-.2,.2,-.4,.3,-.7,.3c-.5,0,-.9,-.4,-.9,-.9c0,-.5,.4,-.9,.9,-.9Z" class="g2"/>
<path d="M863.9,750.6c0,-.5,.4,-.9,.9,-.9c.5,0,.9,.4,.9,.9c0,.2,-.1,.5,-.3,.6c-.1,.2,-.4,.3,-.6,.3c-.5,0,-.9,-.4,-.9,-.9Z" class="g2"/>
<path d="M884.8,750.6c0,.2,-.1,.5,-.3,.6c-.2,.2,-.4,.3,-.6,.3c-.6,0,-1,-.4,-1,-.9c0,-.5,.4,-.9,1,-.9c.5,0,.9,.4,.9,.9Z" class="g2"/>
<path d="M902,750.6c0,-.5,.4,-.9,.9,-.9c.5,0,1,.4,1,.9c0,.2,-.2,.5,-.3,.6c-.2,.2,-.4,.3,-.7,.3c-.5,0,-.9,-.4,-.9,-.9Z" class="g2"/>
<path d="M854.3,750.6c0,-.5,.4,-.9,.9,-.9c.6,0,1,.4,1,.9c0,.2,-.1,.5,-.3,.6c-.2,.2,-.4,.3,-.7,.3c-.5,0,-.9,-.4,-.9,-.9Z" class="g2"/>
<path d="M893.4,749.7c.5,0,.9,.4,.9,.9c0,.2,-.1,.5,-.3,.6c-.1,.2,-.4,.3,-.6,.3c-.5,0,-.9,-.4,-.9,-.9c0,-.5,.4,-.9,.9,-.9Z" class="g2"/>
<path d="M836.8,742.7c-.1,.1,-.4,.2,-.6,.2c-.5,0,-.9,-.4,-.9,-.9c0,-.5,.4,-.9,.9,-.9c.5,0,.9,.4,.9,.9c0,.3,-.1,.5,-.3,.7Z" class="g2"/>
<path d="M846.6,742c0,.3,-.1,.5,-.2,.7c-.2,.1,-.4,.2,-.7,.2c-.5,0,-.9,-.4,-.9,-.9c0,-.5,.4,-.9,.9,-.9c.5,0,.9,.4,.9,.9Z" class="g2"/>
<path d="M882.9,742c0,-.5,.4,-.9,1,-.9c.5,0,.9,.4,.9,.9c0,.3,-.1,.5,-.3,.7c-.2,.1,-.4,.2,-.6,.2c-.6,0,-1,-.4,-1,-.9Z" class="g2"/>
<path d="M873.4,742c0,-.5,.4,-.9,.9,-.9c.5,0,.9,.4,.9,.9c0,.3,-.1,.5,-.2,.7c-.2,.1,-.4,.2,-.7,.2c-.5,0,-.9,-.4,-.9,-.9Z" class="g2"/>
<path d="M863.9,742c0,-.5,.4,-.9,.9,-.9c.5,0,.9,.4,.9,.9c0,.3,-.1,.5,-.3,.7c-.1,.1,-.4,.2,-.6,.2c-.5,0,-.9,-.4,-.9,-.9Z" class="g2"/>
<path d="M854.3,742c0,-.5,.4,-.9,.9,-.9c.6,0,1,.4,1,.9c0,.3,-.1,.5,-.3,.7c-.2,.1,-.4,.2,-.7,.2c-.5,0,-.9,-.4,-.9,-.9Z" class="g2"/>
<path d="M892.5,742c0,-.5,.4,-.9,.9,-.9c.5,0,.9,.4,.9,.9c0,.3,-.1,.5,-.3,.7c-.1,.1,-.4,.2,-.6,.2c-.5,0,-.9,-.4,-.9,-.9Z" class="g2"/>
<path d="M902,742c0,-.5,.4,-.9,.9,-.9c.5,0,1,.4,1,.9c0,.3,-.2,.5,-.3,.7c-.2,.1,-.4,.2,-.7,.2c-.5,0,-.9,-.4,-.9,-.9Z" class="g2"/>
<path d="M856.2,733.4c0,.3,-.1,.5,-.3,.7c-.2,.2,-.4,.3,-.7,.3c-.5,0,-.9,-.4,-.9,-1c0,-.5,.4,-.9,.9,-.9c.6,0,1,.4,1,.9Z" class="g2"/>
<path d="M873.4,733.4c0,-.5,.4,-.9,.9,-.9c.5,0,.9,.4,.9,.9c0,.3,-.1,.5,-.2,.7c-.2,.2,-.4,.3,-.7,.3c-.5,0,-.9,-.4,-.9,-1Z" class="g2"/>
<path d="M863.9,733.4c0,-.5,.4,-.9,.9,-.9c.5,0,.9,.4,.9,.9c0,.3,-.1,.5,-.3,.7c-.1,.2,-.4,.3,-.6,.3c-.5,0,-.9,-.4,-.9,-1Z" class="g2"/>
<path d="M837.1,733.4c0,.3,-.1,.5,-.3,.7c-.1,.2,-.4,.3,-.6,.3c-.5,0,-1,-.4,-1,-1c0,-.5,.5,-.9,1,-.9c.5,0,.9,.4,.9,.9Z" class="g2"/>
<path d="M846.6,733.4c0,.3,-.1,.5,-.2,.7c-.2,.2,-.4,.3,-.7,.3c-.5,0,-.9,-.5,-.9,-1c0,-.5,.4,-.9,.9,-.9c.5,0,.9,.4,.9,.9Z" class="g2"/>
<path d="M882.9,733.4c0,-.5,.4,-.9,1,-.9c.5,0,.9,.4,.9,.9c0,.3,-.1,.5,-.3,.7c-.2,.2,-.4,.3,-.6,.3c-.6,0,-1,-.4,-1,-1Z" class="g2"/>
<path d="M892.5,733.4c0,-.5,.4,-.9,.9,-.9c.5,0,.9,.4,.9,.9c0,.3,-.1,.5,-.3,.7c-.1,.2,-.4,.3,-.6,.3c-.5,0,-.9,-.4,-.9,-1Z" class="g2"/>
<path d="M903.9,733.4c0,.3,-.2,.5,-.3,.7c-.2,.2,-.4,.3,-.7,.3c-.5,0,-.9,-.4,-.9,-1c0,-.5,.4,-.9,.9,-.9c.5,0,1,.4,1,.9Z" class="g2"/>
<path d="M865.7,724.9c0,.2,-.1,.5,-.3,.6c-.1,.2,-.4,.3,-.6,.3c-.5,0,-.9,-.4,-.9,-.9c0,-.5,.4,-1,.9,-1c.5,0,.9,.5,.9,1Z" class="g2"/>
<path d="M846.6,724.9c0,.2,-.1,.5,-.2,.6c-.2,.2,-.4,.3,-.7,.3c-.5,0,-.9,-.4,-.9,-.9c0,-.5,.4,-1,.9,-1c.5,0,.9,.5,.9,1Z" class="g2"/>
<path d="M835.2,724.9c0,-.5,.5,-1,1,-1c.5,0,.9,.5,.9,1c0,.2,-.1,.5,-.3,.6c-.1,.2,-.4,.3,-.6,.3c-.5,0,-1,-.4,-1,-.9Z" class="g2"/>
<path d="M882.9,724.9c0,-.5,.4,-1,1,-1c.5,0,.9,.5,.9,1c0,.2,-.1,.5,-.3,.6c-.2,.2,-.4,.3,-.6,.3c-.6,0,-1,-.4,-1,-.9Z" class="g2"/>
<path d="M854.3,724.9c0,-.5,.4,-1,.9,-1c.6,0,1,.5,1,1c0,.2,-.1,.5,-.3,.6c-.2,.2,-.4,.3,-.7,.3c-.5,0,-.9,-.4,-.9,-.9Z" class="g2"/>
<path d="M902,724.9c0,-.5,.4,-1,.9,-1c.5,0,1,.5,1,1c0,.2,-.2,.5,-.3,.6c-.2,.2,-.4,.3,-.7,.3c-.5,0,-.9,-.4,-.9,-.9Z" class="g2"/>
<path d="M873.4,724.9c0,-.5,.4,-1,.9,-1c.5,0,.9,.5,.9,1c0,.2,-.1,.4,-.2,.6c-.2,.2,-.4,.3,-.7,.3c-.5,0,-.9,-.4,-.9,-.9Z" class="g2"/>
<path d="M894.3,724.9c0,.2,-.1,.5,-.3,.6c-.1,.2,-.4,.3,-.6,.3c-.5,0,-.9,-.4,-.9,-.9c0,-.5,.4,-1,.9,-1c.5,0,.9,.5,.9,1Z" class="g2"/>
<path d="M844.8,716.3c0,-.5,.4,-.9,.9,-.9c.5,0,.9,.4,.9,.9c0,.2,-.1,.5,-.2,.6c-.2,.2,-.4,.3,-.7,.3c-.5,0,-.9,-.4,-.9,-.9Z" class="g2"/>
<path d="M855.2,715.4c.6,0,1,.4,1,.9c0,.2,-.1,.5,-.3,.7c-.2,.1,-.4,.2,-.7,.2c-.5,0,-.9,-.4,-.9,-.9c0,-.5,.4,-.9,.9,-.9Z" class="g2"/>
<path d="M837.1,716.3c0,.2,-.1,.5,-.3,.6c-.1,.2,-.4,.3,-.6,.3c-.5,0,-1,-.4,-1,-.9c0,-.5,.5,-.9,1,-.9c.5,0,.9,.4,.9,.9Z" class="g2"/>
<path d="M903.9,716.3c0,.2,-.2,.5,-.3,.7c-.2,.1,-.4,.2,-.7,.2c-.5,0,-.9,-.4,-.9,-.9c0,-.5,.4,-.9,.9,-.9c.5,0,1,.4,1,.9Z" class="g2"/>
<path d="M883.9,715.4c.5,0,.9,.4,.9,.9c0,.3,-.1,.5,-.3,.6c-.2,.2,-.4,.3,-.6,.3c-.6,0,-1,-.4,-1,-.9c0,-.5,.4,-.9,1,-.9Z" class="g2"/>
<path d="M863.9,716.3c0,-.5,.4,-.9,.9,-.9c.5,0,.9,.4,.9,.9c0,.3,-.1,.5,-.3,.6c-.1,.2,-.4,.3,-.6,.3c-.5,0,-.9,-.4,-.9,-.9Z" class="g2"/>
<path d="M894.3,716.3c0,.3,-.1,.5,-.3,.6c-.1,.2,-.4,.3,-.6,.3c-.5,0,-.9,-.4,-.9,-.9c0,-.5,.4,-.9,.9,-.9c.5,0,.9,.4,.9,.9Z" class="g2"/>
<path d="M873.4,716.3c0,-.5,.4,-.9,.9,-.9c.5,0,.9,.4,.9,.9c0,.3,-.1,.5,-.2,.6c-.2,.2,-.4,.3,-.7,.3c-.5,0,-.9,-.4,-.9,-.9Z" class="g2"/>
<path d="M837.1,707.9c0,.3,-.1,.5,-.3,.7c-.1,.1,-.4,.2,-.6,.2c-.5,0,-1,-.4,-1,-.9c0,-.5,.5,-.9,1,-.9c.5,0,.9,.4,.9,.9Z" class="g2"/>
<path d="M863.9,707.9c0,-.5,.4,-.9,.9,-.9c.5,0,.9,.4,.9,.9c0,.3,-.1,.5,-.3,.7c-.1,.1,-.4,.2,-.6,.2c-.5,0,-.9,-.4,-.9,-.9Z" class="g2"/>
<path d="M846.6,707.9c0,.3,-.1,.5,-.2,.7c-.2,.1,-.4,.2,-.7,.2c-.5,0,-.9,-.4,-.9,-.9c0,-.5,.4,-.9,.9,-.9c.5,0,.9,.4,.9,.9Z" class="g2"/>
<path d="M856.2,707.9c0,.3,-.1,.5,-.3,.7c-.2,.1,-.4,.2,-.7,.2c-.5,0,-.9,-.4,-.9,-.9c0,-.5,.4,-.9,.9,-.9c.6,0,1,.4,1,.9Z" class="g2"/>
<path d="M882.9,707.9c0,-.5,.4,-.9,1,-.9c.5,0,.9,.4,.9,.9c0,.3,-.1,.5,-.3,.7c-.2,.1,-.4,.2,-.6,.2c-.6,0,-1,-.4,-1,-.9Z" class="g2"/>
<path d="M892.5,707.9c0,-.5,.4,-.9,.9,-.9c.5,0,.9,.4,.9,.9c0,.3,-.1,.5,-.3,.7c-.1,.1,-.4,.2,-.6,.2c-.5,0,-.9,-.4,-.9,-.9Z" class="g2"/>
<path d="M903.9,707.9c0,.3,-.2,.5,-.3,.7c-.2,.1,-.4,.2,-.7,.2c-.5,0,-.9,-.4,-.9,-.9c0,-.5,.4,-.9,.9,-.9c.5,0,1,.4,1,.9Z" class="g2"/>
<path d="M873.4,707.9c0,-.5,.4,-.9,.9,-.9c.5,0,.9,.4,.9,.9c0,.3,-.1,.5,-.2,.7c-.2,.1,-.4,.2,-.7,.2c-.5,0,-.9,-.4,-.9,-.9Z" class="g2"/>
<g clip-path="url(#c0)" opacity="0.2">
<path d="M55.8,211.8V308c24.1,22.9,56.7,37,92.6,37c74,0,134.1,-60,134.1,-134.1c0,-24.4,-6.5,-47.4,-18,-67.1H123.8c-37.5,0,-68,30.4,-68,68Z" class="g0"/>
</g>
<image clip-path="url(#cx)" preserveAspectRatio="none" x="34" y="65" width="293" height="391" xlink:href="img/34.jpg"/>
<g clip-path="url(#c0)" opacity="0.2">
<path d="M852.5,211.8V308c-24.1,22.9,-56.7,37,-92.5,37C685.9,345,625.8,285,625.8,210.9c0,-24.4,6.6,-47.4,18,-67.1H784.5c37.6,0,68,30.4,68,68Z" class="g0"/>
</g>
<image clip-path="url(#cy)" preserveAspectRatio="none" x="486" y="122" width="445" height="250" xlink:href="img/35.jpg"/>
<path d="M841.3,1118.2c0,7.6,-12.4,13.7,-27.6,13.7H99.3c-15.3,0,-27.6,-6.1,-27.6,-13.7V397.1c0,-7.6,12.3,-13.8,27.6,-13.8H813.7c15.2,0,27.6,6.2,27.6,13.8v721.1Z" class="g3"/>
<path d="M827.8,458.7c0,7.8,-6.4,14.1,-14.1,14.1H492.2c-7.8,0,-14.1,-6.3,-14.1,-14.1c0,-7.8,6.3,-14.1,14.1,-14.1H813.7c7.7,0,14.1,6.3,14.1,14.1Z" class="g0"/>
<path d="M827.8,618.9c0,7.8,-6.4,14.1,-14.1,14.1H492.2c-7.8,0,-14.1,-6.3,-14.1,-14.1c0,-7.8,6.3,-14.1,14.1,-14.1H813.7c7.7,0,14.1,6.3,14.1,14.1Z" class="g0"/>
<path d="M441.2,768c0,7.8,-6.3,14.1,-14.1,14.1H105.7c-7.8,0,-14.2,-6.3,-14.2,-14.1c0,-7.8,6.4,-14.1,14.2,-14.1H427.1c7.8,0,14.1,6.3,14.1,14.1Z" class="g0"/>
<path d="M827.8,824.7c0,7.8,-6.4,14.1,-14.1,14.1H492.2c-7.8,0,-14.1,-6.3,-14.1,-14.1c0,-7.8,6.3,-14.1,14.1,-14.1H813.7c7.7,0,14.1,6.3,14.1,14.1Z" class="g0"/>
<path d="M602,386.5c0,11,-9,19.9,-20,19.9H331.7c-11,0,-19.9,-8.9,-19.9,-19.9c0,-11.1,8.9,-20,19.9,-20H582c11,0,20,8.9,20,20Z" class="g3"/>
<path d="M597.7,381.8c0,11,-9,20,-20,20H327.5c-11.1,0,-20,-9,-20,-20c0,-11.1,8.9,-20,20,-20H577.7c11,0,20,8.9,20,20Z" class="g2"/>
<path d="M451.1,333.7c0,0,-11.2,3,-6.7,15.4c4.4,12.5,.1,16,-3.1,18.1c0,0,9.8,-.5,11.2,-8.5c1.3,-8,-9.1,-16.9,-1.4,-25Z" class="g2"/>
<path d="M466,316.9c0,0,-12.8,3.7,-8.5,20.8c0,0,-3.3,-7.6,0,-14.8c-2.4,3.3,-3.7,8.4,-1,15.9c6.4,17.7,.2,22.6,-4.4,25.7c0,0,15.3,-1.4,13.7,-17.2c0,0,2,8.1,-3.1,13.5c2.5,-1.8,4.6,-4.5,5.3,-8.4c2,-11.3,-12.8,-24,-2,-35.5Z" class="g2"/>
<path d="M441.2,458.7c0,7.8,-6.3,14.1,-14.1,14.1H105.7c-7.8,0,-14.2,-6.3,-14.2,-14.1c0,-7.8,6.4,-14.1,14.2,-14.1H427.1c7.8,0,14.1,6.3,14.1,14.1Z" class="g0"/>
<path d="M441.2,618.9c0,7.8,-6.3,14.1,-14.1,14.1H105.7c-7.8,0,-14.2,-6.3,-14.2,-14.1c0,-7.8,6.4,-14.1,14.2,-14.1H427.1c7.8,0,14.1,6.3,14.1,14.1Z" class="g0"/>
<image clip-path="url(#cz)" preserveAspectRatio="none" x="56" y="821" width="433" height="529" xlink:href="img/36.jpg"/>
<image clip-path="url(#c10)" preserveAspectRatio="none" x="451" y="883" width="385" height="396" xlink:href="img/37.jpg"/>
</svg>